<?xml version="1.0" standalone="no"?>
<!DOCTYPE svg PUBLIC "-//W3C//DTD SVG 1.1//EN" "http://www.w3.org/Graphics/SVG/1.1/DTD/svg11.dtd" >
<svg xmlns="http://www.w3.org/2000/svg">
  <metadata>Created by iconfont</metadata>
  <defs>
  <font id="iconfont" horiz-adv-x="1024">
    <font-face
      font-family="iconfont"
      font-weight="400"
      font-stretch="normal"
      units-per-em="1024"
      ascent="896"
      descent="-128"
    />
      <missing-glyph />
      
      <glyph glyph-name="dh32" unicode="&#58989;" d="M512 896C230.4 896 0 665.6 0 384s230.4-512 512-512 512 230.4 512 512S793.6 896 512 896z m241.371429-694.857143c0-29.257143-21.942857-54.857143-51.2-54.857143-7.314286 0-10.971429 0-18.285715 3.657143-95.085714 29.257143-186.514286 80.457143-263.314285 146.285714-65.828571 76.8-117.028571 164.571429-146.285715 263.314286-10.971429 29.257143 7.314286 58.514286 36.571429 69.485714 7.314286 3.657143 10.971429 3.657143 18.285714 3.657143h73.142857c10.971429 0 21.942857-7.314286 25.6-14.628571l36.571429-65.828572c3.657143-7.314286 3.657143-18.285714 0-29.257142l-36.571429-69.485715c18.285714-73.142857 73.142857-128 146.285715-146.285714l69.485714 36.571429c7.314286 3.657143 18.285714 3.657143 29.257143 0l65.828571-36.571429c10.971429-3.657143 14.628571-14.628571 14.628572-25.6V201.142857z"  horiz-adv-x="1024" />
      
      <glyph glyph-name="a-lujing2180" unicode="&#58990;" d="M516.308607 514.319791a207.793719 207.793719 0 0 0-69.434467 10.703337l-385.39854 142.358301c-31.561122 11.761909-36.265885 28.699057-36.265885 37.794933s4.704763 26.111437 36.265885 37.794934l385.39854 142.3583a230.690235 230.690235 0 0 0 138.947347 0l385.39854-142.3583c31.561122-11.761909 36.265885-28.699057 36.265885-37.794934s-4.704763-26.111437-36.265885-37.794933l-385.39854-142.358301a207.793719 207.793719 0 0 0-69.473673-10.703337z m-82.33336-642.161005a77.471772 77.471772 0 0 0-27.091596 5.096827l-337.605985 128.7929a117.14861 117.14861 0 0 0-69.199229 106.641305V542.195515c0 38.539854 20.661753 63.435894 52.654144 63.435894a73.041453 73.041453 0 0 0 25.75858-5.096827l342.310748-128.7929a121.539723 121.539723 0 0 0 74.060818-106.641305V-64.562146a60.45621 60.45621 0 0 0-60.848274-63.435894z m172.939263 7.21397h1.803493c-32.266836 0-52.066049 18.309371-52.066049 56.221924V365.139583a115.658768 115.658768 0 0 0 67.944626 106.641306l337.174714 128.753693a87.312569 87.312569 0 0 0 28.77747 5.096827 60.260179 60.260179 0 0 0 60.926687-63.435894V112.650611a122.75512 122.75512 0 0 0-75.158597-106.641305l-342.075509-125.185914a75.511454 75.511454 0 0 0-27.444454-1.450636z m0 0"  horiz-adv-x="1052" />
      
      <glyph glyph-name="yp2" unicode="&#58991;" d="M83.004952 896h219.19128l318.80887-291.318325H401.813822zM425.761142 786.363633l90.046808-87.64393-153.8656-64.388966-48.098272 45.695395zM940.913594 896h-219.19128L402.913444 604.681675h219.272734zM83.004952 295.769401a426.4089 426.4089 0 0 1 428.974685-423.761663 426.4089 426.4089 0 0 1 428.974684 423.761663A426.449627 426.449627 0 0 1 511.979637 719.612517 426.449627 426.449627 0 0 1 83.004952 295.769401zM184.414519 295.769401a325.528781 325.528781 0 0 1 327.565118-323.492445 325.528781 325.528781 0 0 1 327.483664 323.492445 325.813868 325.813868 0 0 1-327.483664 323.573898 325.813868 325.813868 0 0 1-327.565118-323.573898zM332.008201 438.598055h359.942871v-64.836959H332.008201z m0-220.861076h359.942871v-64.674053H332.008201zM553.765265 182.711988v223.549041h65.447861v-223.549041z m-149.100571 0v223.549041h65.529314v-223.549041z"  horiz-adv-x="1024" />
      
      <glyph glyph-name="gslogo" unicode="&#58992;" d="M1402.697094-127.617809l-1191.017649-0.382191 37.181765 247.168648 1190.690056-0.327592zM249.025007 121.898587L0 119.059451l88.395415 529.608104h245.257691zM1160.496934 247.530365L535.067982 247.912557l40.730685 250.116982 625.865742-0.272994zM1380.311597 648.940549H333.543908l41.713463 246.240469L1421.206078 895.890802zM1567.585391 429.83567h-219.323274l36.581178 219.323274h219.596268zM1731.818502 649.213543h-127.597334l19.054972 127.76113 127.979525-0.382191z"  horiz-adv-x="1751" />
      
      <glyph glyph-name="wx23" unicode="&#58993;" d="M579.657143 384.402286a24.612571 24.612571 0 0 1-23.369143-24.173715 24.283429 24.283429 0 0 1 23.369143-21.723428c17.517714 0 30.025143 10.971429 30.025143 21.723428a27.026286 27.026286 0 0 1-30.025143 24.173715z m-76.8 112.603428a27.830857 27.830857 0 0 1 30.025143 29.257143 27.392 27.392 0 0 1-30.025143 29.257143 31.341714 31.341714 0 0 1-34.194286-29.257143 31.890286 31.890286 0 0 1 34.194286-29.257143zM512.036571 896a512 512 0 1 1 512-512 512 512 0 0 1-512 512z m-96.768-641.718857a276.224 276.224 0 0 0-82.578285 13.348571l-84.114286-42.569143 24.210286 71.753143a192.914286 192.914286 0 0 0-94.281143 158.500572c0 113.371429 106.752 200.192 236.909714 200.192 115.090286 0 217.709714-68.425143 237.714286-165.156572a115.456 115.456 0 0 1-22.528 2.523429 193.828571 193.828571 0 0 1-201.142857-187.684572 202.24 202.24 0 0 1 6.656-50.066285 173.933714 173.933714 0 0 0-20.845715-0.841143z m347.867429-81.737143l16.676571-60.086857-63.414857 35.876571a360.155429 360.155429 0 0 0-71.716571-12.507428c-111.798857 0-200.228571 76.8-200.228572 171.885714s88.429714 171.885714 200.228572 171.885714c106.057143 0 201.142857-76.8 201.142857-171.885714a176.749714 176.749714 0 0 0-82.578286-135.131429zM337.700571 555.446857a32.914286 32.914286 0 0 1-35.876571-29.257143 33.536 33.536 0 0 1 35.876571-29.257143 28.708571 28.708571 0 0 1 30.025143 29.257143 28.233143 28.233143 0 0 1-30.025143 29.257143z m373.028572-171.008a24.064 24.064 0 0 1-23.369143-24.173714 23.661714 23.661714 0 0 1 23.369143-21.723429 23.625143 23.625143 0 1 1 0 45.897143z m0 0"  horiz-adv-x="1024" />
      
      <glyph glyph-name="jp1" unicode="&#58994;" d="M83.00171 896h219.272646l318.808744-291.318209H402.054814zM415.494631 795.608642l96.27796-91.512934-160.096726-60.519902-48.098254 45.695377zM940.991465 896h-219.272646L402.991529 604.681791h219.191192zM83.00171 295.76964a426.408731 426.408731 0 0 1 429.015241-423.761495 426.408731 426.408731 0 0 1 428.974514 423.761495A426.449458 426.449458 0 0 1 512.016951 719.612587 426.449458 426.449458 0 0 1 83.00171 295.76964zM184.49269 295.76964a325.528652 325.528652 0 0 1 327.524261-323.492317 325.487925 325.487925 0 0 1 327.483534 323.492317 325.528652 325.528652 0 0 1-327.483534 323.573769 325.813739 325.813739 0 0 1-327.524261-323.573769zM412.03286 438.598237h199.886729v-64.674027H412.03286z m0-220.860988h199.886729v-64.674027H412.03286zM479.27267 182.712272v223.548952h65.447835v-223.548952z"  horiz-adv-x="1024" />
      
      <glyph glyph-name="a-zu3377" unicode="&#58995;" d="M243.331557 666.455612h68.987618a38.740795 38.740795 0 0 1 38.575059 38.575059V857.466375a38.699361 38.699361 0 0 1-38.575059 38.575059H243.331557a38.740795 38.740795 0 0 1-38.575059-38.575059v-152.39427a38.616493 38.616493 0 0 1 38.575059-38.616493z m533.42138 0h68.987619a38.740795 38.740795 0 0 1 38.575058 38.575059V857.466375a38.699361 38.699361 0 0 1-38.575058 38.575059h-68.987619a38.699361 38.699361 0 0 1-38.575058-38.575059v-152.39427a38.616493 38.616493 0 0 1 38.575058-38.616493zM988.439269 741.989803h-73.213887v-58.007607A43.961479 43.961479 0 0 0 872.714093 638.984867h-122.520353a43.878611 43.878611 0 0 0-42.511289 44.997329v58.007607H382.549814v-58.007607A43.961479 43.961479 0 0 0 340.038524 638.984867H217.642474a43.878611 43.878611 0 0 0-42.51129 44.997329v58.007607H101.917298a105.283807 105.283807 0 0 1-101.927653-107.728413v-654.325807a105.366675 105.366675 0 0 1 101.927653-107.728413h886.687707a105.283807 105.283807 0 0 1 101.927652 107.728413V634.178522a105.242373 105.242373 0 0 1-101.927652 107.728413zM365.064663-20.685927a14.336166 14.336166 0 0 0-14.336165-14.294732H246.024767a14.294732 14.294732 0 0 0-14.294732 14.294732v214.420976a14.294732 14.294732 0 0 0 14.294732 14.294732h104.703731a14.336166 14.336166 0 0 0 14.336165-14.294732z m252.208789 3.148984a17.48515 17.48515 0 0 0-17.48515-17.443716h-98.198592a17.48515 17.48515 0 0 0-17.443716 17.443716v326.624262a17.48515 17.48515 0 0 0 17.443716 17.236546h98.405762a17.48515 17.48515 0 0 0 17.48515-17.443716v-326.458526zM575.135069 439.397265l-42.386987 66.294408a15.164846 15.164846 0 0 1-18.521 1.367322l-261.73861-110.711662a13.383184 13.383184 0 0 0-6.960913-2.030266 13.258882 13.258882 0 0 0-11.560087 7.085215 15.247714 15.247714 0 0 0 4.640608 20.012625l261.73861 110.711661a40.895363 40.895363 0 0 0 49.720806-3.811929l42.386987-66.294408a32.857166 32.857166 0 0 1 33.685846-6.00793l219.890265 87.550052a13.300316 13.300316 0 0 0 17.443716-8.576839 14.99911 14.99911 0 0 0-8.038197-18.811038l-219.890265-87.508619a58.463381 58.463381 0 0 0-60.245043 10.772842z m288.836449-455.566885a18.811038 18.811038 0 0 0-18.811038-18.811039h-95.546816a18.852472 18.852472 0 0 0-18.811038 18.811039v384.424698a18.852472 18.852472 0 0 0 18.811038 18.811038H845.284782a18.852472 18.852472 0 0 0 18.811038-18.811038v-384.424698z"  horiz-adv-x="1090" />
      
      <glyph glyph-name="tp3" unicode="&#58996;" d="M83.00171 896h219.272734l318.80887-291.318325H401.810581zM425.88008 786.363633l82.186548-79.824398-146.12752-72.208498L313.92229 680.026132zM940.991806 896h-219.272733L402.991656 604.681675h219.19128zM83.00171 295.769401a426.4089 426.4089 0 0 1 428.974685-423.761663 426.4089 426.4089 0 0 1 428.974684 423.761663A426.449627 426.449627 0 0 1 511.976395 719.612517 426.449627 426.449627 0 0 1 83.00171 295.769401zM184.49273 295.769401a325.528781 325.528781 0 0 1 327.361485-323.655352 325.528781 325.528781 0 0 1 327.646571 323.451718v0.203634a325.528781 325.528781 0 0 1-327.524391 323.573898 325.813868 325.813868 0 0 1-327.483665-323.573898zM299.342119 438.598055h425.146372v-64.592599H299.342119z m0-220.861076h425.146372v-64.674053H299.342119zM481.105531 182.711988v223.549041h65.447861v-223.549041z m116.315551 0v223.549041h69.235447v-223.549041z m-236.215055 0v223.549041h65.447861v-223.549041z"  horiz-adv-x="1024" />
      
      <glyph glyph-name="bangzhu" unicode="&#58988;" d="M520.6 275.7c-11.3 0.6-20.1 4-26.9 10.5-6.6 6.3-8.1 11-10.1 20.8-1.9 9.5-1.5 16.7-1 24.9l0.3 5.3c0.5 9.9 3.5 19.6 8.8 28.1 5.7 9 12.5 17.2 20.8 25.1 8.6 8 17.7 15.7 27 22.9 9.4 7.2 18.7 14.8 27.7 22.7 9 7.9 16.2 15.8 22.1 24.3 6.2 9 9.3 18.8 9.3 29.4 1.2 20.3-6.5 37.7-22.8 51.3-16 13.3-37.4 20-63.5 20-13.7 0-26.3-3.3-37.4-10-10.9-6.5-20.2-14.5-27.7-23.8-7.5-9.2-13.5-19-17.9-29.2-4.5-10.6-6.7-19.4-6.7-26.8 0-9.2-3.3-16-10.1-20.8-6.9-4.8-14.6-7.3-22.8-7.3h-1.3c-9 0.3-17 3.3-24.6 9.2-7.3 5.6-11.1 14.6-11.6 27.5-0.6 11.5 1.9 26.1 7.2 43.5 5.4 17.4 14.8 34.4 28.1 50.5 13.4 16.3 31.2 30.4 52.8 41.8 21.6 11.4 49.2 17.2 81.9 17.2 26.4 0 49.6-3.9 69.1-11.7 19.4-7.7 35.4-18.2 47.5-31.1l1.6-1.7c11.8-12.6 20.3-21.7 29.4-44.4 11.6-28.9 7.1-52.1 5.5-58.5-5.8-22.6-12.6-37.7-22.7-50.4-11.7-14.6-24.9-28.2-39.2-40.4-14-11.7-39.2-33.3-39.2-33.3-13.3-11.4-19.4-22.1-18.6-32.9V309c0.5-8.7-2.4-16.1-8.8-22.8-6.2-6.4-14.8-10-26.2-10.5zM519 129.9c-13 0-23.6 4.2-32.2 12.9-8.7 8.7-13 19-13 31.4 0 12.9 4.2 23.5 12.9 32.2 8.7 8.7 19.2 12.9 32.2 12.9 13 0 23.5-4.2 32.2-12.9s12.9-19.2 12.9-32.2c0-12.4-4.2-22.7-12.9-31.4-8.6-8.6-19.2-12.9-32.1-12.9zM515-32.3c-228.1 0-413.7 185.6-413.7 413.7S286.9 795.1 515 795.1s413.7-185.6 413.7-413.7c0.1-228.1-185.5-413.7-413.7-413.7z m0 747.4c-184 0-333.7-149.7-333.7-333.7S331 47.7 515 47.7s333.7 149.7 333.7 333.7S699 715.1 515 715.1z"  horiz-adv-x="1024" />
      
      <glyph glyph-name="grhd" unicode="&#58983;" d="M620.969107 412.672538c154.804785-33.653214 335.253319-142.487709 335.25332-456.808728 0-83.796503-104.796109-83.796503-444.222427-83.796504-343.666623 0-444.222427 0-444.222427 83.796504C67.777573 266.011831 247.956882 379.153937 403.030893 412.672538a267.677665 267.677665 0 0 0-104.796109 347.839622A224.736164 224.736164 0 0 0 616.728802 865.308269a265.052715 265.052715 0 0 0 96.382806-343.666623 238.93782 238.93782 0 0 0-92.209807-108.969108z"  horiz-adv-x="1024" />
      
      <glyph glyph-name="icon-xmht" unicode="&#58985;" d="M84.768212 896h854.463576c47.470199 0 81.377483-33.907285 81.377484-81.377483v-651.019868c0-47.470199-33.907285-81.377483-81.377484-81.377483H84.768212C37.298013 82.225166 3.390728 116.13245 3.390728 163.602649V814.622517C3.390728 862.092715 37.298013 896 84.768212 896zM939.231788 82.225166H84.768212C37.298013 82.225166 3.390728 116.13245 3.390728 163.602649V814.622517C3.390728 862.092715 37.298013 896 84.768212 896h854.463576c47.470199 0 81.377483-33.907285 81.377484-81.377483v-651.019868c0-47.470199-33.907285-81.377483-81.377484-81.377483zM84.768212 814.622517v-651.019868h854.463576V814.622517H84.768212z m0 40.688741v-40.688741 40.688741zM71.205298-46.622517h881.589404v-81.377483H71.205298zM274.649007 726.463576h67.814569v-406.887417H274.649007zM478.092715 523.019868h67.81457v-203.443709H478.092715zM681.536424 590.834437h67.814569v-271.258278h-67.814569z"  horiz-adv-x="1024" />
      
      <glyph glyph-name="tdhd" unicode="&#58986;" d="M1257.532173 90.308915c0-62.835293-25.161028-75.415807-121.499507-75.415807-25.161028 242.931739-146.593259 360.260167-272.263846 418.924381a353.599895 353.599895 0 0 1 8.409434 397.934433 181.643782 181.643782 0 0 0 222.009067-142.42218A203.171934 203.171934 0 0 0 989.304856 458.978517a372.437028 372.437028 0 0 0 268.227317-368.669602z m-515.26286 322.585901c154.733592-33.637737 335.099139-142.42218 335.099139-456.598646 0-83.757966-104.747914-83.757966-444.018133-83.757966-343.508574 0-444.018133 0-444.018133 83.757966 0 310.005387 180.096446 423.09546 335.09914 456.598646a267.554563 267.554563 0 0 0-104.747914 347.679653A224.63281 224.63281 0 0 0 738.098233 865.322384 264.930819 264.930819 0 0 0 834.571264 521.81381a238.76066 238.76066 0 0 0-92.1674-108.918994zM394.58966 433.817489c-125.670587-58.664214-247.170094-180.096446-272.263846-418.924381-96.33848 0-121.499507 12.580514-121.499508 75.415807a356.560016 356.560016 0 0 0 263.921687 368.669602 202.230077 202.230077 0 0 0-92.1674 259.683332 178.212732 178.212732 0 0 0 213.666908 108.918993A347.208725 347.208725 0 0 1 394.58966 433.817489z"  horiz-adv-x="1258" />
      
      <glyph glyph-name="xmdt" unicode="&#58987;" d="M488.749714-119.398942l-426.666666 291.89418a41.17672 41.17672 0 0 0 45.91746 68.334392l381.22328-251.394709a41.04127 41.04127 0 0 1 45.307937 0l380.207407 252.275132a41.244444 41.244444 0 0 0 52.419048-5.824339l1.015873-1.015873a41.17672 41.17672 0 0 0-6.772487-62.374603l-426.666667-291.89418a40.634921 40.634921 0 0 0-46.459259 0z m0 0M488.749714 65.219048l-426.666666 292.097354a41.17672 41.17672 0 0 0 45.91746 68.334392l381.22328-251.394709a41.04127 41.04127 0 0 1 45.307937 0l380.207407 252.275132a41.04127 41.04127 0 0 0 52.419048-5.824339l1.015873-1.015873a41.17672 41.17672 0 0 0-6.772487-62.374603l-426.666667-292.097354a41.379894 41.379894 0 0 0-46.459259 0z m0 0M488.749714 249.972487L71.767704 535.500529a41.17672 41.17672 0 0 0 0 67.724868L488.749714 888.617989a41.379894 41.379894 0 0 0 46.45926 0l416.98201-285.528042a41.17672 41.17672 0 0 0 0-67.724868L535.208974 249.972487a41.379894 41.379894 0 0 0-46.45926 0z m0 0M641.537016 643.318519L394.273524 475.428571a34.946032 34.946032 0 1 0-39.280423 57.837037l247.263492 167.889948a34.946032 34.946032 0 1 0 39.280423-57.837037z m0 0"  horiz-adv-x="1024" />
      
      <glyph glyph-name="shanchu" unicode="&#59574;" d="M202.666667 640h-42.666667a32 32 0 0 0 0 64h704a32 32 0 0 0 0-64H266.666667v-565.333333a53.333333 53.333333 0 0 1 53.333333-53.333334h384a53.333333 53.333333 0 0 1 53.333333 53.333334V544a32 32 0 0 0 64 0v-469.333333c0-64.8-52.533333-117.333333-117.333333-117.333334H320c-64.8 0-117.333333 52.533333-117.333333 117.333334V640z m224 106.666667a32 32 0 0 0 0 64h170.666666a32 32 0 0 0 0-64H426.666667z m-32-288a32 32 0 0 0 64 0v-256a32 32 0 0 0-64 0V458.666667z m170.666666 0a32 32 0 0 0 64 0v-256a32 32 0 0 0-64 0V458.666667z"  horiz-adv-x="1024" />
      
      <glyph glyph-name="xialaanniu" unicode="&#58982;" d="M881.792 537.216l-334.656-362.176c-18.432-19.968-51.776-19.968-70.208 0l-334.72 362.176c-25.728 27.776-15.808 70.784 23.744 70.784h692.16c39.424 0 49.408-43.008 23.68-70.784z"  horiz-adv-x="1024" />
      
      <glyph glyph-name="a-duobianxing12" unicode="&#58975;" d="M665.189829 795.508185a89.167537 89.167537 0 0 0 144.718914 0L1373.180077 13.241379a89.167537 89.167537 0 0 0-72.314873-141.241379H174.144201A89.167537 89.167537 0 0 0 101.74016 13.241379z"  horiz-adv-x="1475" />
      
      <glyph glyph-name="a-lujing2414" unicode="&#58976;" d="M511.844895 896A511.720812 511.720812 0 0 1 0 384.403272a511.968979 511.968979 0 0 1 511.844895-512.093063 511.906937 511.906937 0 0 1 511.844896 512.093063A511.596728 511.596728 0 0 1 511.844895 896z m0-852.51645a58.319297 58.319297 0 0 0-58.319297 58.319298 58.381339 58.381339 0 0 0 58.319297 58.319297 58.381339 58.381339 0 0 0 58.319298-58.319297 58.319297 58.319297 0 0 0-58.319298-58.629507z m103.795941 315.42054a75.815086 75.815086 0 0 1-39.830839-66.012481v-100.942018H447.879794V335.20412a99.701181 99.701181 0 0 0 54.720872 89.588367l68.245987 43.429264a73.395456 73.395456 0 0 1 11.725901 109.193578 126.193032 126.193032 0 0 1-106.52578 26.305725 110.062163 110.062163 0 0 1-92.318207-120.671311v-35.177704H296.063496c0 127.992245 10.733232 146.790912 61.359346 202.132202a217.146319 217.146319 0 0 0 209.453135 63.034475 203.993457 203.993457 0 0 0 161.122569-191.088761 187.924629 187.924629 0 0 0-112.35771-163.356074z"  horiz-adv-x="1024" />
      
      <glyph glyph-name="a-lujing2416" unicode="&#58977;" d="M512 440.28897a56.475152 56.475152 0 0 1-56.35103-56.351031 56.475152 56.475152 0 0 1 56.35103-56.288969 56.28897 56.28897 0 0 1 56.28897 56.288969 56.28897 56.28897 0 0 1-56.28897 56.351031zM512 896A511.875879 511.875879 0 0 1 0 384a512 512 0 0 1 512-512 512 512 0 0 1 512 512A511.875879 511.875879 0 0 1 512 896z m112.143515-624.143515L204.8 76.8l195.056485 419.343515L819.2 691.2z"  horiz-adv-x="1024" />
      
      <glyph glyph-name="a-zu3305" unicode="&#58978;" d="M1889.617152 796.161307L965.717203-128l-92.520674 92.520674 924.030628 923.899949zM1057.976519-35.479326l-92.389995-92.520674L41.817254 796.030628l92.259316 92.520674z"  horiz-adv-x="1934" />
      
      <glyph glyph-name="a-lujing2415" unicode="&#58979;" d="M744.758616 777.646036h121.739088a72.215978 72.215978 0 0 0 72.215978-72.215978v-761.21408a72.215978 72.215978 0 0 0-72.215978-72.215978H157.502296a72.215978 72.215978 0 0 0-72.215978 72.215978V705.618121A72.215978 72.215978 0 0 0 157.502296 777.646036h121.739088v-48.26936a30.528803 30.528803 0 0 1 30.528803-30.528803h404.334251a30.528803 30.528803 0 0 1 30.528804 30.528803v48.26936zM279.930946 383.843281h464.326171a39.367738 39.367738 0 0 1 39.367738 39.367738 39.367738 39.367738 0 0 1-39.367738 39.367738H279.930946a39.367738 39.367738 0 0 1-39.367738-39.367738 39.367738 39.367738 0 0 1 39.367738-39.179675z m0-315.067279h464.326171a39.367738 39.367738 0 0 1 39.367738 39.367738 39.367738 39.367738 0 0 1-39.367738 39.367738H279.930946a39.367738 39.367738 0 0 1-39.367738-39.367738 39.367738 39.367738 0 0 1 39.367738-39.179675zM334.030242 817.013774V856.381512a39.430425 39.430425 0 0 0 39.430425 39.430426h277.266728a39.430425 39.430425 0 0 0 39.430426-39.430426v-39.367738a39.430425 39.430425 0 0 0-39.430426-39.430425H373.460667a39.430425 39.430425 0 0 0-39.430425 39.618488z"  horiz-adv-x="1024" />
      
      <glyph glyph-name="a-lujing2417" unicode="&#58980;" d="M1004.074933 84.039251L791.578947 296.535236a68.510259 68.510259 0 0 1-96.542373 0l-48.299732-48.299732c-27.28992-27.28992-115.782337 0-193.141838 77.245317s-104.592328 165.566459-77.245316 193.141837l48.299732 48.299733a68.510259 68.510259 0 0 1 0 96.599464L212.153434 875.960749a68.510259 68.510259 0 0 1-96.542372 0l-48.299733-48.299732A232.93488 232.93488 0 0 1 2.683318 688.185549a433.898305 433.898305 0 0 1 18.269403-175.842998 932.024978 932.024978 0 0 1 239.500446-380.003568 932.481713 932.481713 0 0 1 380.003568-239.443354 474.719001 474.719001 0 0 1 133.366637-20.895629 340.039251 340.039251 0 0 1 42.533452 2.626227 232.991971 232.991971 0 0 1 139.53256 64.62801l48.299733 48.299733a68.510259 68.510259 0 0 1 0 96.542373z"  horiz-adv-x="1024" />
      
      <glyph glyph-name="a-lujing2418" unicode="&#58981;" d="M859.900813 586.187056a396.840827 396.840827 0 0 0 43.30322-2.581335C864.325959 762.718798 670.673115 896 449.626505 896 202.450458 896 0 729.319477 0 517.649964c0-122.165655 67.378125-222.468978 179.955963-300.277806l-44.988991-133.860686 157.145385 78.01955a778.088281 778.088281 0 0 1 157.514148-22.336455c14.065645 0 28.078609 0.684844 42.144253 1.791131a327.671571 327.671571 0 0 0-13.907603 93.191481 366.602325 366.602325 0 0 0 382.037658 352.009877z m-241.697294 120.637926a52.680317 52.680317 0 0 0 56.262578-55.525054 52.680317 52.680317 0 0 0-56.262578-55.683095 62.900298 62.900298 0 0 0-67.483486 55.683095 62.689577 62.689577 0 0 0 67.483486 55.525054zM303.543986 595.616833a63.21638 63.21638 0 0 0-67.694207 55.683095 62.847618 62.847618 0 0 0 67.694207 55.525054 52.680317 52.680317 0 0 0 56.157218-55.525054 52.680317 52.680317 0 0 0-56.157218-55.683095z m966.736496-356.171623c0 177.84875-179.850602 322.877662-381.879618 322.877663-213.934767 0-382.40642-145.028912-382.40642-322.877663s168.577014-322.824982 382.40642-322.824982a568.947423 568.947423 0 0 1 134.861612 22.283774l123.324621-66.798641-33.820763 111.155468c90.294063 67.009363 157.514148 155.828377 157.514148 256.184381z m-505.731043 55.683095a47.991769 47.991769 0 0 0-44.93631 44.514868 48.25517 48.25517 0 0 0 44.93631 44.514868 51.205268 51.205268 0 0 0 56.262579-44.514868 50.994547 50.994547 0 0 0-56.42062-44.514868z m247.281408 0a47.833728 47.833728 0 0 0-44.620229 44.514868 48.097129 48.097129 0 0 0 44.620229 44.514868 51.363309 51.363309 0 0 0 56.262578-44.514868 51.152588 51.152588 0 0 0-56.420619-44.514868z"  horiz-adv-x="1270" />
      
      <glyph glyph-name="shouji" unicode="&#58880;" d="M820.409449 98.771654q0-25.19685-10.07874-46.866142t-27.716535-38.299213-41.322835-26.204724-50.897638-9.574803l-357.795276 0q-27.212598 0-50.897638 9.574803t-41.322835 26.204724-27.716535 38.299213-10.07874 46.866142l0 675.275591q0 25.19685 10.07874 47.370079t27.716535 38.80315 41.322835 26.204724 50.897638 9.574803l357.795276 0q27.212598 0 50.897638-9.574803t41.322835-26.204724 27.716535-38.80315 10.07874-47.370079l0-675.275591zM738.771654 725.669291l-455.559055 0 0-577.511811 455.559055 0 0 577.511811zM510.992126 119.937008q-21.165354 0-36.787402-15.11811t-15.622047-37.291339q0-21.165354 15.622047-36.787402t36.787402-15.622047q22.173228 0 37.291339 15.622047t15.11811 36.787402q0 22.173228-15.11811 37.291339t-37.291339 15.11811zM591.622047 811.338583q0 8.062992-5.03937 12.598425t-11.086614 4.535433l-128 0q-5.03937 0-10.582677-4.535433t-5.543307-12.598425 5.03937-12.598425 11.086614-4.535433l128 0q6.047244 0 11.086614 4.535433t5.03937 12.598425z"  horiz-adv-x="1024" />
      
      <glyph glyph-name="gengxin1" unicode="&#59339;" d="M837.418667 119.253333C756.522667 18.346667 637.653333-42.666667 508.714667-42.666667 304.896-42.666667 129.834667 109.568 85.333333 320.682667L170.026667 341.333333c35.584-168.746667 175.658667-290.56 338.688-290.56 106.069333 0 203.562667 51.626667 268.373333 136.362667L682.666667 293.333333h256v-288l-101.248 113.92zM186.581333 648.746667C267.477333 749.653333 386.346667 810.666667 515.285333 810.666667c203.818667 0 378.88-152.234667 423.381334-363.349334L853.973333 426.666667c-35.584 168.746667-175.658667 290.56-338.688 290.56-106.069333 0-203.562667-51.626667-268.373333-136.362667L341.333333 474.666667H85.333333v288l101.248-113.92z"  horiz-adv-x="1024" />
      
      <glyph glyph-name="xmdt-ywj" unicode="&#58974;" d="M1845.871971 377.826551h-121.99245l-23.599229-83.333463h121.99245zM2133.101092 896H187.868373a54.34974 54.34974 0 0 1-53.466346-44.968941L0.883394 86.390794a54.307674 54.307674 0 0 1 53.466346-63.646406h1945.190652a54.307674 54.307674 0 0 1 53.508413 44.968941l133.602766 764.640265A54.307674 54.307674 0 0 1 2133.101092 896zM1499.034815 598.632886a799.260881 799.260881 0 0 1 79.926088 96.752633q20.191854 27.553467 34.957147 51.825758l62.67888-29.446453A1261.990865 1261.990865 0 0 0 1548.042127 570.196025l49.890706 3.407375q32.769696 36.008806 52.372621 61.374823l48.923179-39.963044a1508.331481 1508.331481 0 0 0-154.846279-150.976174l103.272919 14.68116a370.183987 370.183987 0 0 1-12.619909-58.598442 1710.207953 1710.207953 0 0 1-207.387165-42.066362l-3.870106-1.724721a316.927972 316.927972 0 0 1-3.785972 65.875923 132.466974 132.466974 0 0 1 47.030193 27.090737c2.481915 2.229517 6.183755 5.216229 11.021387 9.002202a808.894078 808.894078 0 0 1 61.080357 54.686271 353.651907 353.651907 0 0 1-79.926088-14.050165 349.150806 349.150806 0 0 1-4.6273 67.011715 117.785814 117.785814 0 0 1 44.422079 32.475231zM944.347764 690.421688h207.849895l15.690753 55.233134h72.606541l-15.648686-55.233134h211.804133l-38.658987-136.252947h-73.153403l20.402185 72.059679h-349.150806l-20.402185-72.059679h-69.830161z m362.990639-106.427896l-17.709939-62.510614h-296.820251l17.752005 62.510614z m-583.460443-327.781094a164.43741 164.43741 0 0 0-103.651516-32.096634H415.279127a169.779838 169.779838 0 0 0-110.003537 23.094433q-22.000707 23.725428-4.459034 85.647113l76.140115 268.593722h70.923887l-22.168973-78.243433h261.905171l34.830948 122.791711H366.482147l19.350527 68.147506h427.436305l-80.893614-285.546466h-71.512816l7.656078 27.048671H406.613457l-34.830948-122.791711c-5.005897-17.709938-3.785973-28.941657 3.407375-33.65309a139.870654 139.870654 0 0 1 58.892907-7.27748h188.667634a92.293599 92.293599 0 0 1 60.239031 15.732819 219.081614 219.081614 0 0 1 42.739424 77.149708 34.999213 34.999213 0 0 0 2.271583 6.183755 175.87946 175.87946 0 0 1 61.585155-27.04867 287.187054 287.187054 0 0 0-65.749724-107.77402z m456.924826 24.230225a54.686271 54.686271 0 0 1 16.405881-1.682655h57.420584a25.239817 25.239817 0 0 1 22.337238 12.998506 339.980339 339.980339 0 0 1 21.537978 56.326859 144.287622 144.287622 0 0 1 54.055275-25.912879 202.170936 202.170936 0 0 0-53.971142-91.24194 95.238244 95.238244 0 0 0-55.443466-14.68116h-73.742333q-54.686271 0-64.571865 22.54757a101.337866 101.337866 0 0 0 4.5011 59.692168l33.19036 117.154819h-74.878125a336.825362 336.825362 0 0 0-84.427188-131.204984 381.920502 381.920502 0 0 0-162.880955-77.696571 132.004244 132.004244 0 0 1-19.392593 56.873722l-2.860512 3.912171a270.865306 270.865306 0 0 1 150.429311 71.512816 257.109605 257.109605 0 0 1 44.211746 76.560779h-136.799809l18.172668 64.235335h514.219211l-18.172668-64.235335h-158.295721l-32.895895-116.019027c-3.154977-10.895188-2.566048-17.289275 1.935052-19.182261z m266.406271-35.461944c-33.022094-6.394087-56.789589-11.063453-71.512816-14.050165l9.212534 70.377024q81.272212 10.684856 232.753182 38.28039l-12.95644-63.646406q-52.625019-10.726922-157.49646-30.87671z m421.547015-34.91508H1798.336982l6.394087 22.54757h-121.99245l-7.067149-24.819154h-67.558578l65.707658 232.038054h260.18045z m137.641137 400.471767h-119.973265L1868.377475 546.849194h105.881033l-18.509199-65.32906H1671.296568l18.5092 65.32906h106.427896l18.046469 63.688472h-120.435995l18.467133 65.286995h120.520128l20.149787 71.050085h72.101745l-20.149787-71.050085h119.973265z"  horiz-adv-x="2565" />
      
      <glyph glyph-name="gengxin" unicode="&#58984;" d="M171.309757 346.971827C146.751772 500.54421 231.111425 655.731131 381.752145 714.449359c111.636862 43.528816 232.004979 22.709763 317.235633-39.471225l-72.526783-117.478943 325.244596 1.253392L835.458797 896l-59.546741-96.426206c-125.572881 81.321771-296.756483 107.919173-446.653666 49.477117C121.577713 768.090287 2.038109 558.710095 25.640117 346.971827L171.309757 346.971827zM852.687625 431.034065c24.536741-153.572383-59.780424-308.780549-210.421144-367.477532-102.693166-40.023567-215.859591-24.940376-302.874735 29.019211 16.570267 26.894818 65.53753 106.198415 65.53753 106.198415L55.169182 219.295797l148.006473-347.295797 62.053525 100.483797c125.551637-81.321771 279.591386-101.992117 429.488569-43.55006 207.638189 80.981868 327.220281 290.340816 303.618273 502.05784L852.687625 430.991577z"  horiz-adv-x="1024" />
      
      <glyph glyph-name="E-qb" unicode="&#58971;" d="M164.001555 672.26843l498.318983 223.048941 114.966057-223.048941-421.63702-185.78879z m0 0M940.776179 486.536526h-163.54647a81.801678 81.801678 0 0 1-81.801677-81.744792v-245.405033a81.801678 81.801678 0 0 1 81.801677-81.744792h163.54647v-122.645631a81.744792 81.744792 0 0 0-81.744792-81.744792H82.199878a81.744792 81.744792 0 0 0-81.744792 81.744792v654.185879a81.687906 81.687906 0 0 0 81.744792 81.744792h776.717738a81.744792 81.744792 0 0 0 81.744792-81.744792z m0 0M777.286595 445.635687h204.390423a40.843953 40.843953 0 0 0 40.900839-40.843953v-245.348148a40.900839 40.900839 0 0 0-40.900839-40.843953h-204.390423a40.900839 40.900839 0 0 0-40.900839 40.843953V404.791734a40.843953 40.843953 0 0 0 40.900839 40.843953z m81.744792-204.447309a40.900839 40.900839 0 1 1-40.900839 40.900839 40.843953 40.843953 0 0 1 40.900839-40.900839z m0 0"  horiz-adv-x="1024" />
      
      <glyph glyph-name="E-wxzf" unicode="&#58972;" d="M22.016 384a512 490.666667 90 1 1 981.333333 0 512 490.666667 90 1 1-981.333333 0ZM686.976 542.549333c11.264 0 22.485333-1.024 33.706667-2.005333C690.56 680.32 539.434667 784.810667 367.274667 784.810667 174.762667 784.128 17.024 654.037333 17.024 488.789333a285.44 285.44 0 0 1 139.904-234.666666l-35.242667-104.32 122.624 60.757333a607.189333 607.189333 0 0 1 122.538667-17.066667c11.264 0 21.973333 0.469333 32.682667 1.450667a265.173333 265.173333 0 0 0-10.666667 73.045333 286.421333 286.421333 0 0 0 298.24 274.602667z m-188.416 94.165334a43.562667 43.562667 0 1 0 0-87.125334 44.330667 44.330667 0 1 0 0 87.125334zM253.397333 549.589333a44.330667 44.330667 0 1 0 0 87.125334 43.562667 43.562667 0 1 0 0-87.125334z m753.408-278.016c0 138.837333-139.946667 252.288-297.813333 252.288-166.4 0-297.728-113.493333-297.728-252.288s131.242667-252.373333 297.728-252.373333a449.749333 449.749333 0 0 1 105.216 17.066667l96-52.138667-26.538667 86.656c70.528 53.162667 123.093333 122.624 123.093334 200.533333z m-394.325333 43.605334a37.76 37.76 0 0 0-35.242667 34.986666 38.4 38.4 0 0 0 35.242667 34.986667 35.882667 35.882667 0 1 0 0-69.973333z m192.597333 0a37.290667 37.290667 0 0 0-34.773333 34.986666 37.717333 37.717333 0 0 0 34.773333 34.986667 35.882667 35.882667 0 1 0 0-69.973333z m0 0"  horiz-adv-x="1024" />
      
      <glyph glyph-name="E-zfb" unicode="&#58973;" d="M235.106773 314.670164a71.344262 71.344262 0 0 1-27.236721-39.826885 83.43082 83.43082 0 0 1 21.403279-75.792787 145.878033 145.878033 0 0 1 87.04-36.931148 235.016393 235.016393 0 0 1 140.086557 48.094426 294.358033 294.358033 0 0 1 66.643935 66.098361 415.853115 415.853115 0 0 1-201.862296 58.334426 196.910164 196.910164 0 0 1-86.116721-19.934426z m715.079345-128.75541a486.064262 486.064262 0 1 1-53.508197-94.761967c-83.682623 41.295738-221.335082 109.828197-306.360656 151.081967a374.221639 374.221639 0 0 0-167.868852-112.262295 240.094426 240.094426 0 0 0-120.655738-9.232787 154.145574 154.145574 0 0 0-111.88459 81.16459 6.798689 6.798689 0 0 0 0.965246-2.895737 76.380328 76.380328 0 0 0-7.302295 18.465573 102.987541 102.987541 0 0 0-3.399345 16.996722 50.360656 50.360656 0 0 0 0 12.128524 91.656393 91.656393 0 0 0 1.468853 22.830164 113.311475 113.311475 0 0 0 33.57377 62.19541 193.04918 193.04918 0 0 0 141.55541 47.632787 757.046557 757.046557 0 0 0 201.442623-46.163935 682.722623 682.722623 0 0 1 39.91082 115.158033H306.2412v31.601312h149.739016V543.01377H275.017593v32.062951h180.962623V638.237377c0 8.72918 1.972459 15.527869 15.569836 15.527869h71.008525v-78.688525h196.994098V543.47541h-196.994098v-63.160656h157.586885a629.046557 629.046557 0 0 0-65.175082-174.919344c109.450492-38.903607 264.141639-99.126557 315.215738-119.56459z m0 0"  horiz-adv-x="1024" />
      
      <glyph glyph-name="xmdt-wks" unicode="&#58970;" d="M2018.115268 14.632217H54.854626a54.854626 54.854626 0 0 0-54.04794 64.237654L135.650564 850.613317A54.854626 54.854626 0 0 0 189.656047 896h1963.3031a54.854626 54.854626 0 0 0 54.005483-64.280111l-134.843879-771.658532a54.812169 54.812169 0 0 0-54.005483-45.42914zM795.137331 446.803452h-188.254962a352.394268 352.394268 0 0 1 113.403023-130.258508 351.247925 351.247925 0 0 1 44.792283-26.790456 396.76198 396.76198 0 0 1-63.940454-56.765197 8.109314 8.109314 0 0 0-1.655828-1.655828 376.679752 376.679752 0 0 0-137.730965 152.548506 30.314398 30.314398 0 0 0-2.589885 4.245714l-51.500512-181.504276h-72.983825l50.311712 177.640676a884.509612 884.509612 0 0 0-221.711189-149.788792c-2.589886-1.061429-4.670285-2.037943-6.326114-2.802171a203.327247 203.327247 0 0 1-32.224969 57.359597 4.245714 4.245714 0 0 0-1.358629 1.146343 768.474246 768.474246 0 0 1 202.605475 117.521365c16.261085 12.737142 31.418284 25.98377 45.59897 38.933198H286.713071l19.063256 67.379482h216.064389l20.63417 72.983825H369.377124l19.063256 67.337025h173.182677l23.988284 84.659539h73.026282l-24.073198-84.659539h178.31999l-19.105713-67.337025h-178.319991l-20.676627-72.983825h219.376046zM1408.388271 503.611106l-18.341485-64.577311h-117.139251l-65.766111-232.198102h-71.327997l65.851026 232.198102h-134.758965a440.790035 440.790035 0 0 0-171.611763-212.752732c-11.760628-7.345085-23.775999-14.435428-36.131026-21.22857a136.16005 136.16005 0 0 1-34.30537 45.683883c-2.165314 1.868114-4.245714 3.481486-5.859085 5.009943a370.523467 370.523467 0 0 1 173.649705 176.536791l2.972 6.665771h-123.125708l18.341485 64.577311h129.197079l39.485141 139.216964h-110.388566l18.129199 64.067825h481.166775l-18.129199-64.067825h-99.731823l-39.400227-139.216964z m-318.428556 0h130.300965l39.400227 139.216964H1129.359942zM1696.714713 628.392642l38.211427-6.708228a1115.051886 1115.051886 0 0 0-118.879994-252.237873 271.7257 271.7257 0 0 0 44.367712-59.439997l-55.958512-54.005483a303.695927 303.695927 0 0 1-34.942227 53.495998 487.323061 487.323061 0 0 0-132.59365-104.147366 148.939649 148.939649 0 0 1-25.941313 54.005483 360.37621 360.37621 0 0 1 119.431937 92.981138q-12.737142 12.737142-27.724513 26.196055l-11.208685-20.082227-46.023541 30.059655q36.810341 63.473425 93.40571 176.027306h-41.735369l17.66217 62.327082h54.557426q40.504112 84.107596 53.198797 113.020909l62.242168-6.071371q-11.590799-25.049713-51.96754-106.949538h51.797712z m-44.877198-64.067825h-50.693826q-12.397485-23.988284-64.577311-123.677651 4.585371-3.311657 37.065084-30.611598a863.281041 863.281041 0 0 1 78.24851 154.331706z m-0.976514-356.979639l67.421939 237.759988h250.49713l-66.742625-235.594674h-67.379482l5.6468 20.039771h-119.68668l-6.326114-22.247542z m60.925997 344.667068l47.551997 2.802172a1618.636031 1618.636031 0 0 1 104.147366 184.85839l72.17714-12.737142q-64.365025-105.251252-108.945023-168.172734c9.722685 0.382114 24.667599 1.146343 44.622454 2.207771l60.034397 3.396571q-11.930457 40.589026-19.869941 59.439997l61.308111 27.851884a476.666318 476.666318 0 0 0 42.75434-145.882735c0-3.396571 0.212286-6.326114 0.212286-8.916l-67.931425-31.205998a352.394268 352.394268 0 0 1-2.844628 38.975655q-87.16451-6.665771-244.977702-17.280056z m172.24862-168.172734h-119.729137l-26.450799-93.405709h119.729137z"  horiz-adv-x="2565" />
      
      <glyph glyph-name="icon-qian" unicode="&#58997;" d="M565.813026 329.410721v-161.439078h215.252104a53.813026 53.813026 0 1 0 0-107.626052h-215.252104v-134.532565a53.813026 53.813026 0 1 0-107.626052 0v134.532565H242.93487a53.813026 53.813026 0 1 0 0 107.626052h215.252104v161.439078H242.93487a53.813026 53.813026 0 1 0 0 107.626052h176.587445L158.502232 809.826511A53.813026 53.813026 0 1 0 246.647969 871.550052L512 492.625629 777.298218 871.550052a53.813026 53.813026 0 1 0 88.172643-61.723541l-261.020082-372.789738H781.06513a53.813026 53.813026 0 1 0 0-107.626052h-215.252104z"  horiz-adv-x="1024" />
      
      <glyph glyph-name="sc1243" unicode="&#58969;" d="M511.747015 895.241044l244.552417-255.430783h-202.388207v-492.393642h-85.171704V639.810261h-202.388207z m510.777238-510.777238h-85.171704v-425.689862h-851.717039V384.463806h-85.171704v-510.777238h1022.39776z m0 0"  horiz-adv-x="1024" />
      
      <glyph glyph-name="ck-lj" unicode="&#58964;" d="M600.892414 198.133595a272.698122 272.698122 0 0 0-193.040914 80.481816l-35.870482 35.788021 65.968702 65.968702 35.788021-35.788021a180.754243 180.754243 0 0 1 247.382632-8.246088l2.061522 1.8966a70.421589 70.421589 0 0 1 5.854722 5.524879l147.192666 147.275127a180.506861 180.506861 0 0 1 0 255.62872l-2.80367 2.80367a180.4244 180.4244 0 0 1-255.62872 0l-75.121859-75.121859a68.60745 68.60745 0 0 1-5.60734-5.854723l-29.108689-36.282786-72.565572 57.722614 30.015759 36.530169a158.81965 158.81965 0 0 0 12.534053 13.441123l75.12186 75.121859a273.52273 273.52273 0 0 0 387.566123 0l2.80367-2.803669a273.52273 273.52273 0 0 0 0-387.566124L795.747467 277.54342a164.097146 164.097146 0 0 0-12.286671-11.379601 276.573783 276.573783 0 0 0-182.156078-69.761903z m0 0M277.068548-127.50441a272.120895 272.120895 0 0 0-193.700601 80.481816l-2.80367 2.80367a273.440269 273.440269 0 0 0 0 387.566124l147.192666 147.275127a159.726719 159.726719 0 0 0 12.286671 11.379601 273.770113 273.770113 0 0 0 375.196992-11.379601l35.788021-36.777552-65.968702-65.968701-35.788021 35.870481a180.754243 180.754243 0 0 1-247.382632 8.246088l-2.061522-1.8966a67.288076 67.288076 0 0 1-5.854722-5.524879L146.780362 277.296037a180.4244 180.4244 0 0 1 0-255.62872l2.80367-2.80367a180.4244 180.4244 0 0 1 255.628719 0l75.12186 75.12186a70.174207 70.174207 0 0 1 5.607339 5.854722l29.10869 36.282786 72.812955-57.722614-30.263142-36.530169a160.386407 160.386407 0 0 0-12.534053-13.441123l-75.12186-75.121859a272.120895 272.120895 0 0 0-193.288296-80.481817z m0 0"  horiz-adv-x="1024" />
      
      <glyph glyph-name="shoucang" unicode="&#65754;" d="M512 383.1296m-432.3328 0a432.3328 432.3328 0 1 1 864.6656 0 432.3328 432.3328 0 1 1-864.6656 0ZM287.0272 477.2864c-85.0432 0-160.4096-41.3696-207.104-105.0624 4.5568-182.7328 122.368-337.3056 285.952-396.032 103.2192 33.28 177.92 130.048 177.92 244.3776 0 141.7216-114.944 256.7168-256.768 256.7168zM573.184 644.5056L624.64 540.2112a45.8752 45.8752 0 0 1 34.5088-25.088l115.0976-16.7424c37.5808-5.4784 52.5824-51.6608 25.3952-78.1824l-83.3024-81.2032a45.78816 45.78816 0 0 1-13.1584-40.5504l19.6608-114.6368c6.4-37.4272-32.8704-65.9968-66.5088-48.3328l-102.9632 54.1184a45.8496 45.8496 0 0 1-42.6496 0l-102.9632-54.1184c-33.6384-17.664-72.9088 10.8544-66.5088 48.3328l19.6608 114.6368c2.56 14.848-2.3552 30.0544-13.1584 40.5504L264.4992 420.2496c-27.1872 26.5216-12.1856 72.704 25.3952 78.1824l115.0976 16.7424a45.63968 45.63968 0 0 1 34.5088 25.088L491.008 644.5056c16.7936 34.048 65.3824 34.048 82.176 0zM510.7712 189.6448a45.8496 45.8496 0 0 0 42.6496 0l102.9632-54.1184c33.6384-17.664 72.9088 10.8544 66.5088 48.3328l-19.6608 114.6368c-2.56 14.848 2.3552 30.0544 13.1584 40.5504l-205.6192-149.4016z"  horiz-adv-x="1024" />
      
      <glyph glyph-name="xmdt-jjjs1" unicode="&#58968;" d="M2514.823529 384h125.490196l20.078432 75.294118h-125.490196zM617.411765 549.647059h150.588235c15.058824 25.098039 30.117647 45.176471 35.137255 60.235294h-195.764706c5.019608-20.078431 10.039216-40.156863 10.039216-60.235294zM783.058824 394.039216h-276.078432l-15.058823-55.215687h276.078431zM2168.470588 288.627451h-145.568627l-30.117647-100.392157h145.568627zM2720.627451 384h125.490196l20.078431 75.294118h-125.490196zM3207.529412 896H220.862745c-30.117647 0-55.215686-20.078431-60.235294-50.196078L0-52.705882v-10.039216c0-35.137255 30.117647-65.254902 65.254902-65.254902h2986.666667c30.117647 0 55.215686 20.078431 60.235294 50.196078l160.627451 898.509804v10.039216c0 35.137255-30.117647 65.254902-65.254902 65.254902zM2012.862745 640h140.54902l25.098039 85.333333h85.333333l-25.098039-85.333333h140.54902L2359.215686 564.705882h-140.549019l-20.078432-75.294117h125.490196l-20.078431-75.294118h-336.313725l20.078431 75.294118h125.490196l20.078431 75.294117h-140.549019l20.078431 75.294118zM1756.862745 549.647059c35.137255 35.137255 65.254902 75.294118 95.372549 115.45098 15.058824 20.078431 30.117647 40.156863 40.156863 60.235294l75.294118-35.137255c-40.156863-65.254902-95.372549-120.470588-145.568628-175.686274l60.235294 5.019608c25.098039 30.117647 45.176471 50.196078 60.235294 70.27451l55.215687-45.176471c-55.215686-65.254902-115.45098-120.470588-180.705883-175.686275l120.470588 15.058824c-5.019608-20.078431-10.039216-45.176471-15.058823-70.27451-80.313725-10.039216-165.647059-30.117647-245.960784-50.196078h-5.019608c0 25.098039 0 50.196078-5.019608 75.294117 20.078431 5.019608 40.156863 15.058824 55.215686 30.117647 5.019608 5.019608 5.019608 5.019608 15.058824 10.039216 15.058824 10.039216 40.156863 35.137255 70.27451 65.254902-30.117647 0-65.254902-5.019608-95.372549-15.058823 0 25.098039 0 50.196078-5.019608 80.313725 20.078431 10.039216 40.156863 20.078431 50.196078 40.156863z m-913.568627-426.666667c-20.078431-10.039216-40.156863-15.058824-60.235294-15.058823h-90.352942c-45.176471 0-70.27451 10.039216-75.294117 30.117647s-5.019608 45.176471 5.019608 65.254902l20.078431 80.313725h-65.254902c-20.078431-50.196078-60.235294-90.352941-105.411765-120.470588-60.235294-30.117647-120.470588-55.215686-190.745098-65.254902 0 25.098039-10.039216 45.176471-20.078431 65.254902v5.019608c65.254902 5.019608 130.509804 25.098039 185.72549 60.235294 20.078431 15.058824 35.137255 35.137255 45.176471 55.215686h-100.392157l55.215686 185.72549h436.705882l-55.215686-185.72549h-110.431372l-20.078432-75.294118c-5.019608-10.039216 0-20.078431 5.019608-20.078431 10.039216-15.058824 15.058824-15.058824 20.078431-15.058823h70.27451c10.039216 0 20.078431 5.019608 25.098039 15.058823 10.039216 20.078431 20.078431 40.156863 25.09804 65.254902 20.078431-15.058824 40.156863-25.098039 65.254902-30.117647-10.039216-40.156863-30.117647-75.294118-65.254902-100.392157z m30.117647 476.862745s-10.039216-15.058824-35.137255-45.17647l155.607843-5.019608-20.078431-65.254902H366.431373l20.078431 65.254902h140.54902c0 15.058824 0 30.117647-5.019608 45.17647l75.294117 20.078432H431.686275L451.764706 685.176471h230.901961c0 10.039216 0 20.078431-5.019608 30.117647l85.333333 15.058823c5.019608-15.058824 5.019608-30.117647 5.019608-45.17647h225.882353l-20.078431-70.27451h-175.686275l75.294118-15.058824z m125.490196-512l100.392157 346.352941c-25.098039-20.078431-45.176471-40.156863-60.235294-55.215686 0 25.098039-10.039216 55.215686-15.058824 80.313726v5.019607c75.294118 60.235294 140.54902 125.490196 190.745098 205.803922 5.019608 15.058824 15.058824 35.137255 25.098039 50.196078l70.27451-25.098039c-30.117647-50.196078-65.254902-95.372549-105.411765-140.549019l-130.509804-466.82353h-75.294117z m155.607843-5.019608c-10.039216 20.078431-20.078431 35.137255-40.156863 50.196079l-5.019608 5.019608c85.333333 50.196078 145.568627 135.529412 170.666667 230.90196l25.098039 95.372549h75.294118l-25.098039-95.372549c-30.117647-115.45098-100.392157-220.862745-200.784314-286.117647z m406.588235 381.490196L1455.686275 97.882353h-80.313726l105.411765 371.45098 80.313725-5.019608c-40.156863 50.196078-70.27451 105.411765-90.352941 165.647059-55.215686-65.254902-120.470588-125.490196-190.745098-170.666666-20.078431-15.058824-45.176471-30.117647-65.254902-40.156863-5.019608 25.098039-15.058824 45.176471-25.098039 70.27451 70.27451 40.156863 140.54902 90.352941 195.764706 150.588235 25.098039 15.058824 45.176471 40.156863 70.27451 70.27451h75.294117c20.078431-65.254902 55.215686-130.509804 100.392157-180.705883 15.058824-15.058824 30.117647-30.117647 50.196078-40.156862-25.098039-25.098039-50.196078-45.176471-70.274509-75.294118-20.078431 15.058824-35.137255 35.137255-50.196079 50.196078z m135.529412-331.294117c-35.137255-5.019608-60.235294-15.058824-80.313726-15.058824l10.039216 80.313726c65.254902 10.039216 155.607843 25.098039 271.058824 45.17647l-15.058824-75.294117c-40.156863-10.039216-100.392157-20.078431-185.72549-35.137255z m501.960784-45.176471h-80.313725l10.039215 25.098039h-145.568627l-10.039216-30.117647-80.313725 5.019608 75.294118 271.058824h306.196078l-75.294118-271.058824z m818.196079 501.960785h-250.980392l-15.058824-55.215687H2961.568627l-50.196078-220.862745h-165.647059c40.156863-55.215686 95.372549-100.392157 160.627451-125.490196 10.039216-5.019608 20.078431-10.039216 30.117647-10.039216-25.098039-20.078431-50.196078-40.156863-75.294117-65.254902l-5.019608-5.019607c-70.27451 35.137255-130.509804 90.352941-175.686275 155.607843l-50.196078-170.666667h-85.333334l45.176471 165.647059c-80.313725-60.235294-165.647059-110.431373-261.019608-150.588235-10.039216 25.098039-20.078431 50.196078-35.137255 70.274509 85.333333 30.117647 170.666667 70.27451 245.960785 120.470589 10.039216 5.019608 20.078431 15.058824 25.098039 20.078431h-160.627451l60.235294 215.843137h200.784314l15.058823 55.215687h-245.960784l20.078431 75.294117h245.960785l20.078431 60.235294h85.333333l-20.078431-60.235294h250.980392l-20.078431-75.294117z"  horiz-adv-x="3272" />
      
      <glyph glyph-name="grzz-qyrz" unicode="&#58951;" d="M138.766355 599.327103v-430.654206zM138.766355 599.327103v-430.654206l54.23053-31.900311V631.227414zM192.996885 631.227414v-494.454828l54.230529-31.900312V663.127726zM247.227414 663.127726v-558.255452l54.23053-31.900311V691.838006zM301.457944 691.838006v-618.866043l54.23053-28.710281V723.738318zM355.688474 723.738318v-679.476636l54.230529-31.900311V752.448598zM409.919003 12.361371l66.990654-41.470405V793.919003l-66.990654-41.470405zM543.900312 793.919003l-31.900312 19.140187-35.090343-19.140187V-29.109034l35.090343-19.140187 31.900312 19.140187zM543.900312 793.919003V-29.109034l70.180685 38.280374V755.638629zM614.080997 755.638629v-746.467289l66.990654 41.470405V717.358255zM681.071651 717.358255v-666.71651l70.180685 38.280373V675.88785zM751.252336 88.922118l66.990655 41.470405V637.607477l-66.990655 38.280373zM818.242991 130.392523l66.990654 38.280374V599.327103l-66.990654 38.280374zM789.851713 542.863551l-277.53271 159.501558-277.53271-159.501558v-322.193146l277.53271-159.501558 277.53271 159.501558v322.193146zM700.243738 431.05296c-70.180685 38.280374-133.981308 89.320872-188.211838 149.931464-54.23053-60.610592-114.841121-111.65109-188.211838-149.931464l-22.330218 41.470404c73.370717 35.090343 140.361371 86.130841 197.781932 146.741434h31.900311c54.23053-60.610592 121.221184-108.461059 194.591901-146.741434l-25.52025-41.470404zM700.243738 207.750779h-376.423676v41.470405h66.990655v169.071651h41.470404v-169.071651h73.370717v236.062305h41.470405v-95.700934h118.031153v-41.470405h-118.031153v-98.890966h153.121495v-41.470405z"  horiz-adv-x="1024" />
      
      <glyph glyph-name="sy-zcgcs" unicode="&#58952;" d="M197.973333 308.906667h641.706667H197.973333zM836.266667 254.293333c3.413333 17.066667 3.413333 34.133333 3.413333 54.613334H197.973333c0-17.066667 3.413333-37.546667 3.413334-54.613334h634.88zM215.04 199.68H819.2c6.826667 17.066667 10.24 34.133333 13.653333 54.613333H201.386667c3.413333-17.066667 10.24-37.546667 13.653333-54.613333zM242.346667 148.48h556.373333c10.24 17.066667 17.066667 34.133333 23.893333 54.613333H215.04c6.826667-20.48 17.066667-37.546667 27.306667-54.613333zM279.893333 93.866667h477.866667c13.653333 17.066667 27.306667 34.133333 37.546667 54.613333H242.346667c10.24-20.48 23.893333-37.546667 37.546666-54.613333zM341.333333 39.253333h354.986667c23.893333 13.653333 44.373333 34.133333 61.44 54.613334h-477.866667c17.066667-20.48 37.546667-37.546667 61.44-54.613334zM518.826667-11.946667c68.266667 0 126.293333 20.48 177.493333 54.613334H341.333333c51.2-34.133333 112.64-54.613333 177.493334-54.613334zM518.826667-11.946667zM614.4 807.253333c-61.44 17.066667-129.706667 17.066667-191.146667 0v-61.44H614.4V807.253333zM778.24 670.72c-27.306667 30.72-58.026667 58.026667-95.573333 75.093333h-3.413334v-75.093333h98.986667zM256 670.72h102.4V745.813333h-3.413333c-37.546667-17.066667-71.68-44.373333-98.986667-75.093333zM423.253333 745.813333H614.4v-75.093333h-191.146667zM423.253333 670.72H614.4v-75.093333h-191.146667zM679.253333 595.626667h150.186667c-13.653333 27.306667-30.72 51.2-51.2 75.093333h-98.986667v-75.093333zM358.4 670.72h-102.4C235.52 650.24 218.453333 622.933333 204.8 595.626667h153.6V670.72zM679.253333 564.906667H614.4v30.72h-191.146667v-30.72h-64.853333v30.72H204.8c-13.653333-23.893333-20.48-47.786667-27.306667-75.093334h682.666667c-6.826667 27.306667-17.066667 51.2-27.306667 75.093334H682.666667v-30.72zM167.253333 445.44h703.146667c0 23.893333-3.413333 51.2-10.24 75.093333h-682.666667c-6.826667-23.893333-10.24-47.786667-10.24-75.093333zM870.4 445.44H167.253333v-13.653333H102.4v-61.44h832.853333v61.44h-64.853333v13.653333zM102.4 373.76h832.853333v-3.413333H102.4z"  horiz-adv-x="1024" />
      
      <glyph glyph-name="sy-xnje" unicode="&#58953;" d="M208.213333 732.16h617.813334c-34.133333 20.48-75.093333 34.133333-116.053334 40.96-58.026667 13.653333-112.64 17.066667-170.666666 20.48h-40.96c-58.026667 0-116.053333-6.826667-170.666667-20.48-44.373333-10.24-85.333333-23.893333-119.466667-40.96zM187.733333 721.92c-20.48-13.653333-37.546667-30.72-44.373333-51.2h747.52c-10.24 20.48-23.893333 37.546667-44.373333 47.786667-6.826667 3.413333-13.653333 10.24-23.893334 13.653333h-614.4l-20.48-10.24zM143.36 670.72c-3.413333-6.826667-6.826667-17.066667-6.826667-23.893333v-37.546667h761.173334V646.826667c0 6.826667-3.413333 17.066667-6.826667 23.893333H143.36zM136.533333 575.146667c0-10.24 3.413333-17.066667 6.826667-27.306667h747.52c3.413333 6.826667 3.413333 13.653333 6.826667 23.893333V609.28H136.533333v-34.133333zM187.733333 500.053333c6.826667-3.413333 13.653333-6.826667 20.48-13.653333h614.4c6.826667 3.413333 13.653333 6.826667 23.893334 13.653333 20.48 10.24 37.546667 27.306667 44.373333 47.786667H143.36c10.24-20.48 23.893333-37.546667 44.373333-47.786667zM300.373333 452.266667h433.493334c30.72 6.826667 61.44 20.48 88.746666 34.133333h-614.4c27.306667-13.653333 58.026667-27.306667 92.16-34.133333zM187.733333 199.68H136.533333v-10.24h64.853334c-3.413333 3.413333-10.24 6.826667-13.653334 10.24zM829.44 189.44h68.266667v10.24h-51.2c-6.826667-3.413333-10.24-6.826667-17.066667-10.24zM296.96 158.72c-34.133333 6.826667-64.853333 17.066667-95.573333 30.72H136.533333v-40.96h201.386667l-40.96 10.24zM733.866667 158.72c-13.653333-3.413333-27.306667-6.826667-40.96-6.826667h204.8v40.96h-68.266667c-30.72-17.066667-61.44-27.306667-95.573333-34.133333zM337.92 151.893333H136.533333v-17.066666c0-10.24 3.413333-17.066667 6.826667-23.893334h747.52c3.413333 6.826667 6.826667 17.066667 6.826667 23.893334v17.066666h-204.8c-116.053333-23.893333-238.933333-23.893333-354.986667 0zM177.493333 69.973333H853.333333c13.653333 10.24 27.306667 23.893333 34.133334 40.96H143.36c6.826667-17.066667 20.48-30.72 34.133333-40.96zM187.733333 63.146667c20.48-13.653333 44.373333-23.893333 68.266667-34.133334h518.826667c23.893333 10.24 47.786667 20.48 71.68 34.133334 3.413333 0 6.826667 3.413333 10.24 6.826666H177.493333c3.413333-3.413333 6.826667-6.826667 10.24-6.826666zM327.68 8.533333c126.293333-27.306667 256-27.306667 378.88 0 23.893333 3.413333 44.373333 10.24 68.266667 20.48H256c23.893333-10.24 47.786667-17.066667 71.68-20.48zM303.786667 452.266667h430.08H300.373333h3.413334zM327.68 445.44c44.373333-10.24 92.16-17.066667 136.533333-17.066667h105.813334c44.373333 3.413333 92.16 10.24 136.533333 17.066667 6.826667 0 13.653333 3.413333 20.48 6.826667H303.786667c10.24-3.413333 17.066667-6.826667 23.893333-6.826667zM570.026667 428.373333h-105.813334c37.546667-3.413333 71.68-3.413333 105.813334 0zM136.533333 230.4v-23.893333h37.546667c-13.653333 6.826667-27.306667 17.066667-37.546667 23.893333zM897.706667 206.506667v23.893333c-13.653333-6.826667-23.893333-17.066667-37.546667-23.893333h37.546667zM174.08 206.506667H136.533333v-6.826667h51.2c-6.826667 3.413333-10.24 3.413333-13.653333 6.826667zM846.506667 199.68h51.2v6.826667h-37.546667c-3.413333-3.413333-10.24-3.413333-13.653333-6.826667zM826.026667 411.306667h71.68V418.133333h-54.613334c-6.826667-3.413333-10.24-6.826667-17.066666-6.826666zM191.146667 418.133333H136.533333v-6.826666h68.266667c-3.413333 0-10.24 3.413333-13.653333 6.826666zM139.946667 452.266667l-3.413334-23.893334h37.546667c-13.653333 6.826667-23.893333 13.653333-34.133333 23.893334zM856.746667 428.373333h40.96V452.266667h-3.413334c-10.24-10.24-23.893333-17.066667-37.546666-23.893334zM843.093333 418.133333h54.613334v10.24h-40.96c-3.413333-3.413333-10.24-6.826667-13.653334-10.24zM174.08 428.373333H136.533333v-10.24h54.613334c-6.826667 3.413333-13.653333 6.826667-17.066667 10.24zM737.28 380.586667c-17.066667-3.413333-34.133333-6.826667-54.613333-10.24h215.04v40.96h-71.68c-27.306667-13.653333-58.026667-23.893333-88.746667-30.72zM300.373333 380.586667c-34.133333 6.826667-64.853333 17.066667-95.573333 30.72H136.533333v-40.96h218.453334c-20.48 3.413333-37.546667 6.826667-54.613334 10.24zM354.986667 370.346667H136.533333v-13.653334c0-10.24 3.413333-20.48 6.826667-27.306666h747.52c3.413333 6.826667 6.826667 17.066667 6.826667 23.893333v17.066667H682.666667c-109.226667-20.48-218.453333-20.48-327.68 0zM177.493333 288.426667h679.253334c13.653333 10.24 27.306667 23.893333 34.133333 40.96H143.36c6.826667-17.066667 20.48-30.72 34.133333-40.96zM187.733333 281.6c20.48-13.653333 44.373333-23.893333 68.266667-34.133333h522.24c23.893333 10.24 47.786667 20.48 68.266667 34.133333 3.413333 3.413333 6.826667 3.413333 10.24 6.826667H177.493333c3.413333-3.413333 6.826667-3.413333 10.24-6.826667zM314.026667 230.4h406.186666c20.48 3.413333 37.546667 10.24 58.026667 17.066667H256c17.066667-6.826667 37.546667-13.653333 58.026667-17.066667zM327.68 226.986667c58.026667-13.653333 116.053333-20.48 177.493333-20.48h27.306667c58.026667 0 116.053333 6.826667 174.08 20.48 3.413333 0 10.24 3.413333 13.653333 3.413333H314.026667c3.413333 0 10.24-3.413333 13.653333-3.413333z"  horiz-adv-x="1024" />
      
      <glyph glyph-name="sy-xmsl" unicode="&#58954;" d="M337.92 721.92h320.853333l-146.773333 68.266667c-3.413333 0-6.826667 3.413333-10.24 3.413333-3.413333 0-6.826667 0-10.24-3.413333l-153.6-68.266667zM184.32 650.24h624.64l-153.6 71.68H337.92zM85.333333 605.866667c-10.24-3.413333-17.066667-13.653333-17.066666-23.893334h853.333333c0 3.413333 0 6.826667-3.413333 10.24-3.413333 6.826667-6.826667 10.24-13.653334 13.653334l-98.986666 44.373333H184.32L85.333333 605.866667zM71.68 568.32c3.413333-6.826667 6.826667-10.24 13.653333-13.653333l98.986667-44.373334h628.053333l98.986667 44.373334c10.24 3.413333 17.066667 13.653333 17.066667 27.306666H68.266667c0-6.826667 0-10.24 3.413333-13.653333zM256 476.16h481.28l71.68 34.133333H184.32zM583.68 131.413333h266.24l54.613333 23.893334h-266.24zM358.4 155.306667H92.16l54.613333-23.893334h266.24zM498.346667 90.453333l-85.333334 40.96H146.773333L262.826667 76.8h471.04l116.053333 54.613333h-266.24zM375.466667 22.186667h245.76l112.64 54.613333H262.826667zM484.693333-25.6c6.826667-3.413333 17.066667-3.413333 27.306667 0l109.226667 47.786667H375.466667l109.226666-47.786667zM337.92 438.613333h317.44l81.92 37.546667H256zM368.64 424.96h256l30.72 13.653333H337.92zM508.586667 370.346667l116.053333 54.613333h-256l116.053333-54.613333zM484.693333 370.346667c3.413333 0 6.826667-3.413333 13.653334-3.413334s6.826667 0 10.24 3.413334h-23.893334zM68.266667 288.426667v-23.893334h51.2zM928.426667 264.533333v23.893334l-51.2-23.893334zM815.786667 237.226667h112.64v27.306666h-51.2zM119.466667 264.533333H68.266667v-27.306666h112.64zM180.906667 237.226667H68.266667v-27.306667h167.253333zM761.173333 209.92h167.253334v27.306667h-112.64zM699.733333 182.613333h228.693334v27.306667h-167.253334zM235.52 209.92H68.266667v-27.306667h228.693333zM351.573333 158.72l-54.613333 23.893333H68.266667v-17.066666l17.066666-6.826667zM645.12 158.72h266.24l17.066667 6.826667v17.066666h-228.693334zM904.533333 155.306667l6.826667 3.413333h-266.24l-6.826667-3.413333zM351.573333 158.72H85.333333l6.826667-3.413333h266.24zM68.266667 476.16v-37.546667h81.92zM928.426667 438.613333v37.546667l-81.92-37.546667zM815.786667 424.96h112.64v13.653333h-81.92zM150.186667 438.613333H68.266667v-13.653333h112.64zM180.906667 424.96H68.266667v-54.613333h228.693333zM699.733333 370.346667h228.693334v54.613333h-112.64zM583.68 319.146667h273.066667l71.68 30.72v17.066666h-238.933334zM413.013333 319.146667L307.2 366.933333H68.266667v-17.066666l71.68-30.72zM692.906667 366.933333h235.52v3.413334h-228.693334zM68.266667 370.346667v-3.413334h235.52l-6.826667 3.413334zM689.493333 366.933333h238.933334-235.52zM303.786667 366.933333H68.266667h238.933333zM413.013333 319.146667h-273.066666l61.44-30.72h273.066666zM795.306667 288.426667l61.44 30.72h-273.066667l-61.44-30.72zM498.346667 278.186667l-23.893334 10.24h-273.066666l54.613333-23.893334h484.693333l54.613334 23.893334h-273.066667zM317.44 237.226667h361.813333l61.44 27.306666H256zM628.053333 209.92l51.2 27.306667H317.44l51.2-27.306667zM430.08 182.613333h136.533333l61.44 27.306667h-259.413333zM484.693333 158.72s3.413333 0 0 0H512l54.613333 23.893333h-133.12l51.2-23.893333zM508.586667 158.72h-20.48c6.826667-3.413333 13.653333-3.413333 20.48 0z"  horiz-adv-x="1024" />
      
      <glyph glyph-name="xmdt-zdtj" unicode="&#58955;" d="M59.733333 55.466667c0-21.333333 21.333333-42.666667 55.466667-42.666667h128v64H59.733333v-21.333333zM59.733333 145.066667h183.466667v-68.266667H59.733333zM59.733333 213.333333h183.466667v-68.266666H59.733333zM59.733333 285.866667h183.466667v-68.266667H59.733333zM59.733333 354.133333h183.466667v-68.266666H59.733333zM59.733333 405.333333v-51.2h183.466667v68.266667H64c0-4.266667-4.266667-8.533333-4.266667-17.066667zM64 422.4h179.2v38.4h-128c-21.333333-4.266667-42.666667-17.066667-51.2-38.4zM874.666667 68.266667c0 4.266667 0 4.266667 4.266666 8.533333H277.333333v-64h512c38.4 0 72.533333 21.333333 85.333334 55.466667zM900.266667 145.066667H277.333333v-68.266667h601.6c4.266667 21.333333 12.8 46.933333 21.333334 68.266667zM921.6 213.333333H277.333333v-68.266666h622.933334c8.533333 25.6 12.8 46.933333 21.333333 68.266666zM938.666667 285.866667H277.333333V213.333333h644.266667c4.266667 25.6 12.8 46.933333 17.066667 72.533334zM951.466667 354.133333H277.333333v-68.266666H938.666667c4.266667 21.333333 8.533333 46.933333 12.8 68.266666zM955.733333 366.933333c0 21.333333 0 42.666667-4.266666 55.466667H277.333333v-68.266667h674.133334c4.266667 4.266667 4.266667 8.533333 4.266666 12.8zM904.533333 494.933333H324.266667c-17.066667-12.8-34.133333-25.6-46.933334-29.866666v-42.666667h674.133334c-8.533333 34.133333-25.6 59.733333-46.933334 72.533333zM324.266667 494.933333h580.266666c-29.866667 21.333333-59.733333 21.333333-59.733333 21.333334h-221.866667c4.266667 17.066667 8.533333 34.133333 12.8 46.933333H401.066667c-25.6-25.6-51.2-51.2-76.8-68.266667zM401.066667 563.2h234.666666c4.266667 25.6 8.533333 46.933333 12.8 68.266667h-204.8c-8.533333-21.333333-25.6-46.933333-42.666666-68.266667zM443.733333 631.466667h204.8c4.266667 25.6 0 51.2 0 68.266666h-187.733333V682.666667c-4.266667-12.8-8.533333-29.866667-17.066667-51.2zM546.133333 797.866667c-55.466667 0-85.333333-42.666667-89.6-93.866667h187.733334c-12.8 98.133333-98.133333 93.866667-98.133334 93.866667z"  horiz-adv-x="1024" />
      
      <glyph glyph-name="xmdt-gcsdjb" unicode="&#58956;" d="M477.866667 362.666667v17.066666h140.8c-21.333333 12.8-38.4 21.333333-59.733334 25.6H384c-17.066667 0-51.2-17.066667-85.333333-42.666666h179.2zM477.866667 362.666667H298.666667c-29.866667-21.333333-64-46.933333-93.866667-76.8h273.066667v76.8zM477.866667 268.8v17.066667H204.8c-25.6-25.6-46.933333-51.2-59.733333-76.8h298.666666l-38.4 42.666666 72.533334 17.066667zM477.866667 128v38.4l-34.133334 38.4h-298.666666c-12.8-21.333333-21.333333-42.666667-21.333334-64v-17.066667h354.133334zM123.733333 128c0-29.866667 8.533333-55.466667 17.066667-76.8h337.066667V128H123.733333zM140.8 51.2c21.333333-46.933333 64-76.8 132.266667-76.8h204.8v76.8H140.8zM516.266667 836.266667c-12.8 4.266667-29.866667 4.266667-42.666667 4.266666-17.066667 0-29.866667-4.266667-46.933333-4.266666h89.6zM516.266667 836.266667H426.666667c-46.933333-12.8-85.333333-42.666667-115.2-81.066667h320c-25.6 42.666667-64 68.266667-115.2 81.066667zM311.466667 755.2c-12.8-21.333333-25.6-46.933333-29.866667-76.8h384c-4.266667 29.866667-17.066667 55.466667-29.866667 76.8H311.466667zM661.333333 597.333333c4.266667 12.8 4.266667 29.866667 8.533334 46.933334 0 12.8 0 21.333333-4.266667 34.133333h-384c0-12.8-4.266667-21.333333-4.266667-34.133333 0-17.066667 4.266667-29.866667 4.266667-46.933334h379.733333zM661.333333 597.333333H281.6c8.533333-29.866667 21.333333-55.466667 38.4-76.8h302.933333c17.066667 21.333333 34.133333 51.2 38.4 76.8zM622.933333 520.533333H320c38.4-42.666667 89.6-72.533333 153.6-72.533333s115.2 29.866667 149.333333 72.533333zM721.066667 362.666667l-8.533334 17.066666-8.533333-17.066666zM618.666667 379.733333h-140.8v-17.066666h166.4c-8.533333 8.533333-17.066667 12.8-25.6 17.066666zM648.533333 285.866667h128l-55.466666 76.8h-17.066667zM558.933333 285.866667l42.666667 8.533333 42.666667 68.266667h-166.4v-76.8h81.066666zM797.866667 251.733333l-21.333334 34.133334h-128l-4.266666-8.533334-17.066667-25.6-149.333333-21.333333 21.333333-21.333333h426.666667l21.333333 21.333333zM477.866667 268.8l81.066666 17.066667h-81.066666zM644.266667 209.066667h-145.066667l81.066667-81.066667h264.533333l81.066667 81.066667zM840.533333 123.733333l4.266667 4.266667h-264.533333l4.266666-4.266667-8.533333-72.533333h273.066667zM849.066667 51.2h-273.066667l-12.8-76.8 81.066667 34.133333 68.266666 29.866667 149.333334-64z"  horiz-adv-x="1024" />
      
      <glyph glyph-name="xmdt-cysm" unicode="&#58957;" d="M772.266667 605.866667h192c-29.866667 38.4-76.8 59.733333-132.266667 59.733333h-38.4c-17.066667 0-34.133333-17.066667-34.133333-34.133333 0-12.8 4.266667-21.333333 12.8-25.6zM793.6 597.333333h38.4c42.666667 0 76.8-25.6 89.6-64h76.8c-4.266667 25.6-17.066667 51.2-34.133333 68.266667h-192c8.533333 0 12.8-4.266667 21.333333-4.266667zM921.6 533.333333c4.266667-12.8 8.533333-21.333333 8.533333-34.133333 0-12.8-4.266667-21.333333-4.266666-34.133333h76.8c0 12.8 4.266667 21.333333 4.266666 34.133333 0 12.8 0 25.6-4.266666 34.133333h-81.066667zM832 401.066667h-38.4c-4.266667 0-12.8-4.266667-17.066667-4.266667h192c12.8 21.333333 25.6 42.666667 29.866667 68.266667h-76.8c-12.8-38.4-46.933333-64-89.6-64zM968.533333 396.8h-192c-8.533333-4.266667-17.066667-17.066667-17.066666-29.866667 0-17.066667 12.8-38.4 34.133333-38.4h42.666667c55.466667 0 102.4 25.6 132.266666 68.266667zM226.133333 388.266667h-38.4c-51.2 0-93.866667-25.6-128-59.733334h183.466667c8.533333 8.533333 17.066667 17.066667 17.066667 25.6 0 17.066667-12.8 34.133333-34.133334 34.133334zM98.133333 256c12.8 38.4 46.933333 64 89.6 64h38.4c4.266667 0 12.8 4.266667 17.066667 8.533333H59.733333c-17.066667-21.333333-29.866667-42.666667-34.133333-68.266666h72.533333zM93.866667 187.733333c-4.266667 8.533333-4.266667 21.333333-4.266667 34.133334 0 12.8 4.266667 25.6 8.533333 34.133333H25.6c-4.266667-12.8-4.266667-21.333333-4.266667-34.133333 0-12.8 0-21.333333 4.266667-34.133334h68.266667zM55.466667 119.466667h187.733333c-4.266667 4.266667-8.533333 4.266667-17.066667 4.266666h-38.4c-42.666667 0-76.8 25.6-93.866666 64H25.6c4.266667-25.6 17.066667-46.933333 29.866667-68.266666zM243.2 119.466667H55.466667c29.866667-42.666667 76.8-68.266667 132.266666-68.266667h38.4c17.066667 0 34.133333 21.333333 34.133334 38.4 0 12.8-4.266667 21.333333-17.066667 29.866667zM729.6 132.266667c0 17.066667-12.8 34.133333-34.133333 34.133333H324.266667c-17.066667 0-34.133333-12.8-34.133334-34.133333v-12.8h439.466667v12.8zM290.133333 119.466667h439.466667v-68.266667H290.133333zM315.733333-21.333333h388.266667c17.066667 4.266667 29.866667 17.066667 25.6 34.133333v38.4H290.133333v-38.4c0-12.8 8.533333-29.866667 25.6-34.133333zM315.733333-21.333333H704 315.733333zM729.6 422.4c0 17.066667-12.8 34.133333-34.133333 34.133333H324.266667c-17.066667 0-34.133333-12.8-34.133334-34.133333v-25.6h439.466667v25.6zM290.133333 396.8h439.466667v-68.266667H290.133333zM729.6 302.933333v25.6H290.133333v-25.6c0-17.066667 12.8-34.133333 34.133334-34.133333h371.2c21.333333 0 38.4 12.8 34.133333 34.133333zM729.6 708.266667c0 17.066667-12.8 34.133333-34.133333 34.133333H324.266667c-17.066667 0-34.133333-12.8-34.133334-34.133333v-34.133334h439.466667v34.133334zM290.133333 674.133333h439.466667v-68.266666H290.133333zM729.6 588.8v17.066667H290.133333v-17.066667c0-17.066667 12.8-34.133333 34.133334-34.133333h371.2c21.333333 0 38.4 17.066667 34.133333 34.133333z"  horiz-adv-x="1024" />
      
      <glyph glyph-name="xmdt-jxz" unicode="&#58958;" d="M162.461538 851.692308H2560c-9.846154 24.615385-34.461538 44.307692-64 44.307692H221.538462c-29.538462 0-54.153846-19.692308-59.076924-44.307692zM162.461538 851.692308c-4.923077-4.923077-4.923077-4.923077-4.923076-9.846154l-14.769231-83.692308h2407.384615l9.846154 64v9.846154c0 4.923077 0 14.769231-4.923077 19.692308H162.461538zM2530.461538 664.615385l19.692308 93.538461H142.769231l-14.769231-93.538461zM108.307692 571.076923h2407.384616l14.76923 93.538462H128zM93.538462 477.538462h2407.384615l14.769231 93.538461H108.307692zM78.769231 384h2402.461538l19.692308 93.538462H93.538462zM59.076923 290.461538h2407.384615l14.769231 93.538462H78.769231zM44.307692 196.923077h2407.384616l14.76923 93.538461H59.076923zM29.538462 103.384615h2402.461538l19.692308 93.538462H44.307692zM9.846154 9.846154h2407.384615l14.769231 93.538461H29.538462zM2397.538462-83.692308c0 4.923077 4.923077 4.923077 4.923076 9.846154l14.769231 83.692308H9.846154L0-54.153846v-9.846154c0-4.923077 0-14.769231 4.923077-19.692308h2392.615385zM2397.538462-83.692308H4.923077c9.846154-24.615385 34.461538-44.307692 59.076923-44.307692h2274.461538c29.538462 0 54.153846 19.692308 59.076924 44.307692zM481.132308 478.129231l-68.923077-246.153846 29.538461-24.615385c49.230769-24.615385 103.384615-34.461538 152.615385-29.538462h19.692308c83.692308 0 167.384615 4.923077 251.076923 14.769231-19.692308-24.615385-34.461538-54.153846-44.307693-83.692307-88.615385-4.923077-167.384615-4.923077-231.384615-4.923077-54.153846-4.923077-113.230769 4.923077-167.384615 24.615384-4.923077 4.923077-9.846154 4.923077-14.769231 9.846154s-14.769231 9.846154-24.615385 19.692308-19.692308 14.769231-34.461538 19.692307c-14.769231 0-49.230769-29.538462-93.538462-83.692307l-34.461538 78.769231c34.461538 29.538462 68.923077 54.153846 113.230769 68.923076l44.307692 162.461539h-78.76923l19.692307 73.846154h162.461539z m49.230769 123.076923l-73.846154-49.230769c-19.692308 39.384615-39.384615 78.769231-68.923077 113.230769l68.923077 44.307692c29.538462-34.461538 54.153846-68.923077 73.846154-108.307692z m196.923077-246.153846h-88.615385c-29.538462-64-78.769231-123.076923-137.846154-162.461539-9.846154 19.692308-19.692308 34.461538-34.461538 49.230769l-9.846154 9.846154c39.384615 24.615385 73.846154 64 98.461539 103.384616h-78.769231l19.692307 78.76923h88.615385c4.923077 9.846154 9.846154 29.538462 14.769231 49.23077l9.846154 44.307692h-83.692308l19.692308 78.769231h83.692307l29.538462 98.461538h78.769231l-29.538462-98.461538h78.769231l29.538461 98.461538h78.769231l-29.538461-98.461538h78.76923l-19.692307-78.769231h-78.769231l-24.615385-93.538462h88.615385l-19.692308-78.76923h-88.615384l-44.307693-152.615385h-78.76923l49.230769 152.615385z m-29.538462 172.307692l-9.846154-44.307692c-4.923077-9.846154-9.846154-24.615385-14.76923-49.23077h78.76923l24.615385 93.538462h-78.769231zM1190.055385 576.590769l68.923077-29.538461c-34.461538-34.461538-64-68.923077-103.384616-103.384616l-98.461538-349.538461h-78.769231l73.846154 265.846154c-29.538462-19.692308-49.230769-39.384615-68.923077-49.23077-9.846154 24.615385-19.692308 49.230769-34.461539 68.923077 68.923077 39.384615 137.846154 93.538462 196.923077 152.615385 14.769231 9.846154 29.538462 24.615385 44.307693 44.307692z m14.76923 142.769231l68.923077-29.538462c-64-59.076923-132.923077-113.230769-206.76923-157.538461-9.846154-4.923077-19.692308-14.769231-29.538462-19.692308-4.923077 24.615385-14.769231 44.307692-24.615385 64 59.076923 29.538462 113.230769 68.923077 157.538462 113.230769 14.769231 9.846154 29.538462 19.692308 34.461538 29.538462z m413.538462-221.538462l-19.692308-73.846153h-93.538461l-68.923077-236.307693c-4.923077-29.538462-19.692308-54.153846-44.307693-68.923077-4.923077-4.923077-9.846154-4.923077-19.692307-9.846153-44.307692-9.846154-88.615385-14.769231-132.923077-14.769231 4.923077 29.538462 4.923077 54.153846 0 83.692307 29.538462 0 64-4.923077 93.538461 0 9.846154 0 19.692308 4.923077 19.692308 14.769231l68.923077 236.307693h-196.923077l19.692308 73.846153 374.153846-4.923077z m34.461538 182.153847l-19.692307-78.769231h-329.846154l19.692308 78.769231h329.846153zM2056.516923 606.129231h236.307692l-93.538461-334.769231h-83.692308l9.846154 34.461538h-152.615385l-59.076923-211.692307h-83.692307l59.076923 211.692307h-152.615385l-9.846154-34.461538h-78.769231l98.461539 339.692308h231.384615l34.461539 118.153846h83.692307l-39.384615-123.076923z m-300.307692-226.461539h152.615384l39.384616 142.769231h-152.615385l-39.384615-142.769231z m236.307692 0h152.615385l39.384615 142.769231h-152.615385l-39.384615-142.769231z"  horiz-adv-x="2560" />
      
      <glyph glyph-name="xmdt-xmcylc" unicode="&#58959;" d="M823.466667 810.666667H187.733333h635.733334zM823.466667 810.666667H187.733333c-21.333333-4.266667-42.666667-21.333333-42.666666-51.2v-25.6h725.333333v25.6c0 25.6-17.066667 46.933333-46.933333 51.2zM145.066667 733.866667h725.333333v-76.8h-725.333333zM145.066667 652.8h725.333333v-76.8h-725.333333zM145.066667 576h725.333333v-76.8h-725.333333zM145.066667 499.2h725.333333v-76.8h-725.333333zM145.066667 422.4h725.333333v-76.8h-725.333333zM145.066667 345.6h725.333333v-76.8h-725.333333zM145.066667 268.8h725.333333v-76.8h-725.333333zM145.066667 192h725.333333v-76.8h-725.333333zM145.066667 55.466667c0-8.533333 0-12.8 4.266666-21.333334h721.066667v76.8h-725.333333v-55.466666zM174.933333-12.8c12.8-17.066667 29.866667-25.6 46.933334-29.866667h648.533333v76.8H149.333333c4.266667-17.066667 12.8-34.133333 25.6-46.933333zM238.933333-42.666667h631.466667H221.866667h17.066666zM196.266667 132.266667v-72.533334c0-21.333333 17.066667-42.666667 38.4-42.666666h584.533333v157.866666H234.666667c-21.333333 0-38.4-21.333333-38.4-42.666666zM567.466667 384c0-21.333333 17.066667-38.4 38.4-38.4h145.066666c21.333333 0 38.4 17.066667 38.4 38.4s-17.066667 38.4-38.4 38.4h-149.333333c-17.066667 0-34.133333-17.066667-34.133333-38.4zM567.466667 554.666667c0-21.333333 17.066667-38.4 38.4-38.4h145.066666c21.333333 0 38.4 17.066667 38.4 38.4s-17.066667 38.4-38.4 38.4h-145.066666c-21.333333 4.266667-38.4-17.066667-38.4-38.4z"  horiz-adv-x="1024" />
      
      <glyph glyph-name="xmdt-ysz" unicode="&#58960;" d="M160.914286 852.114286H2535.619048c-9.752381 24.380952-34.133333 43.885714-63.390477 43.885714H219.428571c-29.257143 0-53.638095-19.504762-58.514285-43.885714zM160.914286 852.114286c-4.87619-4.87619-4.87619-4.87619-4.876191-9.752381l-14.628571-97.52381h2384.457143l9.752381 78.019048v9.752381c0 4.87619 0 14.628571-4.876191 19.504762H160.914286zM2506.361905 642.438095l14.628571 102.4H141.409524l-19.504762-102.4zM102.4 540.038095H2486.857143l19.504762 102.4H121.904762zM82.895238 437.638095h2384.457143l19.504762 102.4H102.4zM68.266667 330.361905h2379.580952l19.504762 107.27619H82.895238zM48.761905 227.961905h2384.457143l14.628571 102.4H68.266667zM29.257143 125.561905h2384.457143l19.504762 102.4H48.761905zM14.628571 18.285714h2379.580953l19.504762 107.276191H29.257143zM2374.704762-84.114286c0 4.87619 4.87619 4.87619 4.87619 9.752381l14.628572 92.647619H14.628571L0-54.857143v-9.752381c0-4.87619 0-14.628571 4.87619-19.504762h2369.828572zM2374.704762-84.114286H4.87619c9.752381-24.380952 29.257143-43.885714 58.514286-43.885714h2252.8c29.257143 0 53.638095 19.504762 58.514286 43.885714zM423.204571 272.579048l-9.752381-58.514286c-19.504762-4.87619-43.885714-9.752381-78.019047-19.504762-43.885714-9.752381-78.019048-14.628571-97.52381-19.504762l4.876191 63.390476c34.133333 4.87619 97.52381 14.628571 180.419047 34.133334z m209.676191 146.285714l14.628571 58.514286c-29.257143-19.504762-53.638095-39.009524-82.895238-53.638096-4.87619 24.380952-14.628571 43.885714-29.257143 63.390477-9.752381-29.257143-24.380952-63.390476-39.009523-107.276191h53.638095s-4.87619-9.752381-9.752381-29.257143c-24.380952-82.895238-53.638095-160.914286-92.647619-238.933333-4.87619-4.87619-9.752381-14.628571-14.628572-19.504762-14.628571-14.628571-39.009524-24.380952-58.514285-24.380952h-82.895238c4.87619 19.504762 4.87619 43.885714 0 63.390476 24.380952 0 48.761905-4.87619 68.266666-4.876191 9.752381 0 19.504762 4.87619 24.380953 9.752381 34.133333 53.638095 63.390476 117.028571 78.019047 180.419048h-175.542857c29.257143 68.266667 53.638095 146.285714 82.895238 234.057143l68.266667-4.876191c-14.628571-39.009524-34.133333-92.647619-58.514286-170.666666h53.638095c24.380952 63.390476 53.638095 136.533333 78.019048 219.428571h-151.161905l19.504762 68.266667h224.304762c-19.504762-58.514286-39.009524-121.904762-63.390476-180.419048 78.019048 39.009524 146.285714 92.647619 204.8 156.038095 19.504762 19.504762 34.133333 39.009524 48.761905 58.514286l63.390476-24.380952c-4.87619-4.87619-14.628571-14.628571-29.257143-34.133334 29.257143-48.761905 68.266667-92.647619 112.152381-126.780952 4.87619-4.87619 9.752381-9.752381 19.504762-9.752381-24.380952-24.380952-43.885714-48.761905-58.514286-78.019048-19.504762 14.628571-34.133333 29.257143-48.761905 43.885715l-14.628571-53.638096-204.8 4.876191z m204.8-39.009524l68.266667-14.628571c-58.514286-92.647619-107.27619-160.914286-141.409524-204.8h78.019047l-19.504762-68.266667h-351.085714l19.504762 68.266667h199.92381c48.761905 68.266667 92.647619 136.533333 131.657142 214.552381 9.752381 0 14.628571 4.87619 14.628572 4.87619z m-209.676191-160.914286l-68.266666-19.504762c9.752381 53.638095 9.752381 107.27619 9.752381 156.038096l63.390476 14.628571c4.87619-48.761905 4.87619-102.4-4.876191-151.161905z m34.133334 268.190477h175.542857c-24.380952 29.257143-48.761905 63.390476-68.266667 97.523809-29.257143-34.133333-68.266667-68.266667-107.27619-97.523809z m73.142857-258.438096l-68.266667-9.752381c9.752381 53.638095 14.628571 107.27619 19.504762 160.914286l63.390476 9.752381c0-58.514286-4.87619-112.152381-14.628571-160.914286zM1617.871238 496.88381h-39.009524c-43.885714-92.647619-97.52381-175.542857-165.790476-253.561905 24.380952-48.761905 63.390476-87.771429 112.152381-107.276191-24.380952-19.504762-48.761905-39.009524-73.142857-63.390476l-4.876191-4.87619c-43.885714 24.380952-82.895238 63.390476-107.27619 112.152381-58.514286-48.761905-121.904762-87.771429-190.171429-112.152381-4.87619 24.380952-9.752381 48.761905-24.380952 68.266666l-19.504762-68.266666h-78.019048l48.761905 170.666666c-82.895238-24.380952-136.533333-39.009524-156.038095-43.885714l-4.87619 82.895238 19.504761 4.876191c9.752381 0 19.504762 4.87619 24.380953 4.87619l92.647619 331.580952h78.019047l-87.771428-316.952381 58.514286 14.628572 107.27619 375.466667h78.019048l-68.266667-248.685715c73.142857 73.142857 131.657143 156.038095 175.542857 248.685715l78.019048-14.628572-58.514286-102.4h229.180952l-24.380952-78.019047z m-414.47619-97.52381l-73.142858-263.314286c68.266667 24.380952 126.780952 63.390476 180.419048 107.276191-14.628571 53.638095-19.504762 112.152381-19.504762 170.666666l-58.514286-58.514285c-9.752381 19.504762-19.504762 34.133333-29.257142 43.885714z m292.571428 97.52381h-126.780952c-4.87619-58.514286 0-121.904762 14.628571-180.419048 43.885714 58.514286 82.895238 117.028571 112.152381 180.419048zM2027.471238 574.902857h234.057143l-97.52381-336.457143h-82.895238l9.752381 34.133334h-151.161904l-58.514286-209.676191h-82.895238l58.514285 209.676191h-151.161904l-9.752381-39.009524h-82.895238l97.523809 336.457143h234.057143l34.133333 117.028571h82.895238l-34.133333-112.152381z m-297.447619-224.304762h151.161905l39.009524 146.285715h-151.161905l-39.009524-146.285715z m234.057143 0h151.161905l39.009523 146.285715h-151.161904l-39.009524-146.285715z"  horiz-adv-x="2535" />
      
      <glyph glyph-name="qj-wrz" unicode="&#58961;" d="M916.48 896h2304c87.04 0 153.6-66.56 153.6-153.6v-716.8c0-87.04-66.56-153.6-153.6-153.6h-2304V896zM3220.48-128h-2304V896h2304c87.04 0 153.6-66.56 153.6-153.6v-716.8c0-87.04-66.56-153.6-153.6-153.6z m-2252.8 51.2h2252.8c56.32 0 102.4 46.08 102.4 102.4V742.4c0 56.32-46.08 102.4-102.4 102.4h-2252.8v-921.6zM1561.6 629.76v-76.8h204.8v-56.32h-204.8v-97.28h240.64v-56.32h-189.44c40.96-71.68 107.52-138.24 204.8-194.56l-40.96-51.2c-97.28 71.68-168.96 153.6-209.92 245.76v-276.48h-61.44v276.48c-46.08-97.28-117.76-179.2-215.04-245.76l-35.84 56.32c92.16 51.2 158.72 112.64 204.8 194.56h-189.44V404.48h240.64V501.76h-199.68V558.08h199.68V634.88h51.2v-5.12zM2007.04 450.56v-256c20.48 15.36 40.96 35.84 61.44 56.32l15.36-61.44c-40.96-35.84-81.92-66.56-128-97.28l-20.48 51.2c10.24 10.24 15.36 20.48 15.36 30.72V394.24h-87.04V450.56h143.36zM2048 537.6l-40.96-40.96c-25.6 30.72-56.32 61.44-102.4 92.16l40.96 40.96c40.96-30.72 71.68-61.44 102.4-92.16z m225.28 92.16c0-51.2 0-102.4-5.12-148.48 30.72-153.6 87.04-271.36 163.84-363.52l-40.96-51.2c-61.44 76.8-107.52 174.08-138.24 281.6l-5.12-25.6c-20.48-107.52-76.8-194.56-158.72-261.12l-40.96 46.08c71.68 61.44 117.76 133.12 138.24 225.28 15.36 76.8 25.6 168.96 25.6 286.72h61.44v10.24zM2616.32 450.56v-250.88c15.36 15.36 35.84 30.72 51.2 51.2l15.36-61.44c-35.84-35.84-76.8-66.56-117.76-97.28l-20.48 51.2c10.24 10.24 15.36 20.48 15.36 30.72V394.24h-87.04V450.56h143.36z m40.96 87.04l-40.96-40.96c-25.6 30.72-56.32 61.44-97.28 92.16l40.96 40.96c40.96-35.84 71.68-61.44 97.28-92.16z m30.72 15.36V609.28h348.16v-56.32h-122.88v-158.72h112.64v-56.32h-112.64v-194.56h133.12v-56.32h-378.88v56.32h56.32V460.8h56.32v-317.44h71.68v409.6h-163.84zM153.6 896C76.8 896 15.36 839.68 0 768h1024V896H153.6zM0 742.4v-102.4h1024V768H0V742.4zM0 640h1024v-128H0zM0 512h1024V384H0zM0 384h1024v-128H0zM0 256h1024V128H0zM0 25.6v-25.6h1024V128H0v-102.4zM153.6-128h870.4v128H0C15.36-71.68 76.8-128 153.6-128zM936.8064 389.7344l-10.24-5.12c-102.4-66.56-189.44-143.36-271.36-235.52l-107.52 87.04-51.2-40.96 189.44-194.56 5.12 15.36c61.44 128 148.48 245.76 250.88 343.04l5.12 5.12-10.24 25.6zM435.0464 205.4144c0 15.36 10.24 30.72 20.48 40.96l35.84 30.72c20.48 15.36 40.96 15.36 61.44 5.12v5.12c-5.12 5.12-5.12 15.36-5.12 20.48v20.48c0 10.24 5.12 20.48 10.24 25.6 5.12 5.12 15.36 10.24 20.48 20.48 5.12 5.12 10.24 10.24 10.24 15.36 5.12 5.12 5.12 10.24 10.24 20.48 0 5.12 5.12 15.36 5.12 25.6 5.12 0 10.24 5.12 15.36 10.24 5.12 5.12 10.24 10.24 10.24 15.36 5.12 10.24 5.12 15.36 5.12 25.6v20.48c0 5.12 0 10.24-5.12 15.36 0 5.12-5.12 5.12-10.24 10.24 0 20.48 0 40.96-5.12 61.44-5.12 20.48-5.12 35.84-10.24 56.32-5.12 20.48-15.36 35.84-25.6 51.2-5.12 10.24-15.36 15.36-20.48 20.48-10.24 5.12-20.48 15.36-30.72 20.48-10.24 5.12-25.6 10.24-40.96 10.24-15.36 5.12-25.6 5.12-40.96 5.12-10.24 0-25.6 0-35.84-5.12-10.24 0-25.6-5.12-35.84-10.24s-25.6-10.24-35.84-20.48c-10.24-10.24-20.48-20.48-30.72-35.84-10.24-15.36-20.48-30.72-25.6-46.08s-10.24-35.84-10.24-51.2c0-20.48-5.12-35.84-5.12-56.32-5.12-5.12-5.12-10.24-10.24-15.36 0-5.12-5.12-10.24-5.12-15.36 0-10.24 0-15.36 5.12-20.48 0-5.12 5.12-15.36 10.24-20.48l10.24-10.24c5.12 0 5.12-5.12 10.24-5.12 0-10.24 5.12-15.36 5.12-25.6 0-5.12 5.12-10.24 10.24-20.48 0-5.12 5.12-10.24 10.24-15.36 10.24-5.12 15.36-15.36 20.48-20.48 5.12-5.12 10.24-15.36 10.24-25.6v-20.48c0-5.12 0-10.24-5.12-20.48-5.12-5.12-5.12-10.24-10.24-15.36-5.12-5.12-15.36-15.36-25.6-20.48-15.36-10.24-30.72-15.36-46.08-20.48-15.36-5.12-35.84-10.24-51.2-15.36s-30.72-15.36-40.96-20.48c-10.24-10.24-20.48-25.6-20.48-40.96-5.12-25.6-5.12-51.2-5.12-76.8 0-15.36 5.12-25.6 10.24-35.84 5.12-5.12 15.36-5.12 20.48-5.12 10.24 0 25.6-5.12 40.96-5.12s35.84-5.12 56.32-5.12c20.48 0 40.96-5.12 61.44-5.12s40.96-5.12 56.32-5.12h102.4c20.48 0 40.96 0 61.44 5.12 10.24 0 20.48 0 30.72 5.12l-138.24 138.24c0-5.12-5.12 10.24-5.12 30.72z"  horiz-adv-x="3379" />
      
      <glyph glyph-name="qj-yrz" unicode="&#58962;" d="M916.48 896h2304c87.04 0 153.6-66.56 153.6-153.6v-716.8c0-87.04-66.56-153.6-153.6-153.6h-2304V896zM3220.48-128h-2304V896h2304c87.04 0 153.6-66.56 153.6-153.6v-716.8c0-87.04-66.56-153.6-153.6-153.6z m-2252.8 51.2h2252.8c56.32 0 102.4 46.08 102.4 102.4V742.4c0 56.32-46.08 102.4-102.4 102.4h-2252.8v-921.6zM1361.92 343.04v-168.96c0-25.6 10.24-35.84 35.84-35.84h307.2c10.24 0 20.48 5.12 30.72 10.24 10.24 10.24 15.36 46.08 20.48 112.64l56.32-20.48c-5.12-76.8-15.36-122.88-30.72-138.24-15.36-15.36-35.84-20.48-61.44-20.48H1382.4c-51.2 0-76.8 25.6-76.8 81.92V486.4h61.44v-81.92H1689.6V552.96h-414.72V609.28H1740.8v-256h-378.88v-10.24zM2007.04 450.56v-256c20.48 15.36 40.96 35.84 61.44 56.32l15.36-61.44c-40.96-35.84-81.92-66.56-128-97.28l-20.48 51.2c10.24 10.24 15.36 20.48 15.36 30.72V394.24h-87.04V450.56h143.36zM2048 537.6l-40.96-40.96c-25.6 30.72-56.32 61.44-102.4 92.16l40.96 40.96c40.96-30.72 71.68-61.44 102.4-92.16z m225.28 92.16c0-51.2 0-102.4-5.12-148.48 30.72-153.6 87.04-271.36 163.84-363.52l-40.96-51.2c-61.44 76.8-107.52 174.08-138.24 281.6l-5.12-25.6c-20.48-107.52-76.8-194.56-158.72-261.12l-40.96 46.08c71.68 61.44 117.76 133.12 138.24 225.28 15.36 76.8 25.6 168.96 25.6 286.72h61.44v10.24zM2616.32 450.56v-250.88c15.36 15.36 35.84 30.72 51.2 51.2l15.36-61.44c-35.84-35.84-76.8-66.56-117.76-97.28l-20.48 51.2c10.24 10.24 15.36 20.48 15.36 30.72V394.24h-87.04V450.56h143.36z m40.96 87.04l-40.96-40.96c-25.6 30.72-56.32 61.44-97.28 92.16l40.96 40.96c40.96-35.84 71.68-61.44 97.28-92.16z m30.72 15.36V609.28h348.16v-56.32h-122.88v-158.72h112.64v-56.32h-112.64v-194.56h133.12v-56.32h-378.88v56.32h56.32V460.8h56.32v-317.44h71.68v409.6h-163.84zM153.6 896C92.16 896 40.96 860.16 15.36 808.96H1024V896H153.6zM0 742.4v-15.36h1024V808.96H15.36C5.12 788.48 0 768 0 742.4zM0 727.04h1024V640H0zM0 640h1024v-87.04H0zM0 552.96h1024v-87.04H0zM0 471.04h1024V384H0zM0 384h1024v-87.04H0zM0 296.96h1024v-87.04H0zM0 215.04h1024V128H0zM0 128h1024v-87.04H0zM0 25.6c0-25.6 5.12-46.08 15.36-66.56H1024v87.04H0v-20.48zM153.6-128h870.4v87.04H15.36C40.96-92.16 92.16-128 153.6-128zM952.1664 389.7344l-10.24-5.12c-102.4-66.56-189.44-143.36-271.36-235.52l-107.52 87.04-51.2-40.96 189.44-194.56 5.12 15.36c61.44 128 148.48 245.76 250.88 343.04l5.12 5.12-10.24 25.6zM450.4064 205.4144c0 15.36 10.24 30.72 20.48 40.96l35.84 30.72c20.48 15.36 40.96 15.36 61.44 5.12v5.12c-5.12 5.12-5.12 15.36-5.12 20.48v20.48c0 10.24 5.12 20.48 10.24 25.6 5.12 5.12 15.36 10.24 20.48 20.48 5.12 5.12 10.24 10.24 10.24 15.36 5.12 5.12 5.12 10.24 10.24 20.48 0 5.12 5.12 15.36 5.12 25.6 5.12 0 10.24 5.12 15.36 10.24 5.12 5.12 10.24 10.24 10.24 15.36 5.12 10.24 5.12 15.36 5.12 25.6v20.48c0 5.12 0 10.24-5.12 15.36 0 5.12-5.12 5.12-10.24 10.24 0 20.48 0 40.96-5.12 61.44-5.12 20.48-5.12 35.84-10.24 56.32-5.12 20.48-15.36 35.84-25.6 51.2-5.12 10.24-15.36 15.36-20.48 20.48-10.24 5.12-20.48 15.36-30.72 20.48-10.24 5.12-25.6 10.24-40.96 10.24-15.36 5.12-25.6 5.12-40.96 5.12-10.24 0-25.6 0-35.84-5.12-10.24 0-25.6-5.12-35.84-10.24s-25.6-10.24-35.84-20.48c-10.24-10.24-20.48-20.48-30.72-35.84-10.24-15.36-20.48-30.72-25.6-46.08s-10.24-35.84-10.24-51.2c0-20.48-5.12-35.84-5.12-56.32-5.12-5.12-5.12-10.24-10.24-15.36 0-5.12-5.12-10.24-5.12-15.36 0-10.24 0-15.36 5.12-20.48 0-5.12 5.12-15.36 10.24-20.48l10.24-10.24c5.12 0 5.12-5.12 10.24-5.12 0-10.24 5.12-15.36 5.12-25.6 0-5.12 5.12-10.24 10.24-20.48 0-5.12 5.12-10.24 10.24-15.36 10.24-5.12 15.36-15.36 20.48-20.48 5.12-5.12 10.24-15.36 10.24-25.6v-20.48c0-5.12 0-10.24-5.12-20.48-5.12-5.12-5.12-10.24-10.24-15.36-5.12-5.12-15.36-15.36-25.6-20.48-15.36-10.24-30.72-15.36-46.08-20.48-15.36-5.12-35.84-10.24-51.2-15.36s-30.72-15.36-40.96-20.48c-10.24-10.24-20.48-25.6-20.48-40.96-5.12-25.6-5.12-51.2-5.12-76.8 0-15.36 5.12-25.6 10.24-35.84 5.12-5.12 15.36-5.12 20.48-5.12 10.24 0 25.6-5.12 40.96-5.12s35.84-5.12 56.32-5.12c20.48 0 40.96-5.12 61.44-5.12s40.96-5.12 56.32-5.12h102.4c20.48 0 40.96 0 61.44 5.12 10.24 0 20.48 0 30.72 5.12l-138.24 138.24c0-5.12-5.12 10.24-5.12 30.72z"  horiz-adv-x="3379" />
      
      <glyph glyph-name="grrz-wdqb-rz" unicode="&#58963;" d="M138.24 732.16L373.76 875.52c-92.16-25.6-171.52-74.24-235.52-143.36zM371.2 875.52L138.24 732.16c-30.72-33.28-56.32-69.12-79.36-110.08L504.32 896c-46.08 0-89.6-7.68-133.12-20.48zM58.88 624.64c-12.8-25.6-25.6-53.76-35.84-81.92L593.92 888.32C565.76 893.44 540.16 896 512 896h-7.68L58.88 624.64zM593.92 888.32L25.6 542.72c-7.68-23.04-12.8-46.08-17.92-71.68L665.6 872.96c-23.04 7.68-48.64 12.8-71.68 15.36zM7.68 471.04c-2.56-20.48-5.12-43.52-7.68-64L727.04 847.36c-20.48 10.24-40.96 17.92-61.44 23.04L7.68 471.04zM780.8 819.2c-17.92 10.24-35.84 20.48-53.76 28.16L0 404.48v-20.48c0-12.8 0-25.6 2.56-38.4L780.8 819.2zM2.56 345.6c2.56-17.92 2.56-38.4 7.68-56.32L826.88 788.48c-15.36 12.8-30.72 23.04-46.08 33.28L2.56 345.6zM23.04 235.52l844.8 517.12c-12.8 12.8-28.16 25.6-40.96 35.84L10.24 286.72c2.56-17.92 7.68-35.84 12.8-51.2zM40.96 184.32L903.68 711.68c-10.24 12.8-23.04 25.6-35.84 38.4L23.04 232.96c5.12-15.36 10.24-33.28 17.92-48.64zM64 138.24L936.96 670.72c-10.24 15.36-20.48 28.16-30.72 40.96L40.96 184.32c5.12-15.36 12.8-30.72 23.04-46.08zM89.6 92.16l872.96 532.48c-7.68 15.36-17.92 30.72-28.16 43.52l-870.4-529.92c7.68-15.36 17.92-30.72 25.6-46.08zM122.88 51.2l862.72 527.36c-7.68 15.36-12.8 33.28-23.04 48.64L89.6 92.16c10.24-12.8 23.04-28.16 33.28-40.96zM158.72 12.8l842.24 514.56c-5.12 17.92-10.24 33.28-17.92 51.2L122.88 51.2c12.8-12.8 23.04-25.6 35.84-38.4zM202.24-23.04l814.08 496.64c-2.56 17.92-7.68 35.84-12.8 53.76l-844.8-514.56c15.36-12.8 28.16-23.04 43.52-35.84zM248.32-53.76l773.12 473.6c0 20.48-2.56 38.4-7.68 56.32L202.24-23.04l46.08-30.72zM248.32-53.76c17.92-10.24 35.84-20.48 53.76-28.16L1021.44 358.4c0 7.68 2.56 17.92 2.56 25.6 0 12.8 0 23.04-2.56 33.28L248.32-53.76zM1016.32 291.84c5.12 20.48 5.12 43.52 7.68 66.56L302.08-81.92c20.48-10.24 40.96-17.92 61.44-23.04l652.8 396.8zM437.76-122.88l558.08 340.48c7.68 23.04 15.36 48.64 17.92 71.68L363.52-104.96c25.6-7.68 48.64-12.8 74.24-17.92zM960 135.68c15.36 25.6 28.16 53.76 35.84 84.48L437.76-122.88c25.6-2.56 48.64-5.12 74.24-5.12h17.92l430.08 263.68zM668.16-102.4l204.8 125.44c33.28 33.28 61.44 71.68 84.48 112.64L529.92-128c48.64 2.56 94.72 10.24 138.24 25.6zM875.52 23.04l-204.8-125.44c76.8 23.04 145.92 66.56 204.8 125.44zM783.36 614.4c-2.56 0-176.64 35.84-258.56 89.6-7.68 5.12-15.36 5.12-23.04 0C419.84 650.24 240.64 614.4 240.64 614.4c-10.24-2.56-17.92-10.24-17.92-20.48v-304.64c0-110.08 156.16-271.36 294.4-271.36s284.16 176.64 284.16 271.36V593.92c0 10.24-7.68 17.92-17.92 20.48zM256 573.44c92.16 7.68 179.2 38.4 256 87.04v-296.96H256v209.92z m448-401.92C601.6 51.2 512 51.2 512 51.2V363.52h256v-48.64c0-15.36 5.12-71.68-64-143.36zM509.44 51.2h0zM391.68 79.36l-133.12 179.2c15.36-76.8 66.56-143.36 133.12-179.2zM261.12 258.56l133.12-179.2-133.12 179.2zM394.24 79.36c20.48-10.24 40.96-17.92 64-23.04L256 330.24v-23.04c0-15.36 2.56-30.72 5.12-46.08l133.12-181.76zM509.44 51.2l-230.4 312.32H256v-33.28l202.24-273.92c15.36-2.56 33.28-5.12 51.2-5.12zM276.48 363.52l230.4-312.32h2.56v58.88l-186.88 253.44h-46.08zM325.12 363.52l186.88-256v64l-140.8 192zM371.2 363.52l140.8-192v64l-94.72 128zM417.28 363.52l94.72-128v64l-46.08 64zM465.92 363.52l46.08-64v64z"  horiz-adv-x="1024" />
      
      <glyph glyph-name="xmdt-cbz" unicode="&#58965;" d="M162.461538 851.692308H2560c-9.846154 24.615385-34.461538 44.307692-64 44.307692H221.538462c-29.538462 0-54.153846-19.692308-59.076924-44.307692zM162.461538 851.692308c-4.923077-4.923077-4.923077-4.923077-4.923076-9.846154l-14.769231-73.846154h2407.384615l9.846154 54.153846v9.846154c0 4.923077 0 14.769231-4.923077 19.692308H162.461538zM2535.384615 679.384615l14.769231 88.615385H142.769231l-14.769231-88.615385zM113.230769 595.692308h2407.384616l14.76923 83.692307H128zM98.461538 512h2407.384616l14.769231 83.692308H113.230769zM83.692308 428.307692h2407.384615l14.769231 83.692308H98.461538zM68.923077 339.692308h2407.384615l14.769231 88.615384H83.692308zM54.153846 256H2461.538462l14.76923 83.692308H68.923077zM39.384615 172.307692h2407.384616L2461.538462 256H54.153846zM24.615385 88.615385h2407.384615l14.769231 83.692307H39.384615zM9.846154 0h2407.384615l14.769231 88.615385H24.615385zM2397.538462-83.692308c0 4.923077 4.923077 4.923077 4.923076 9.846154l14.769231 73.846154H9.846154L0-54.153846v-9.846154c0-4.923077 0-14.769231 4.923077-19.692308h2392.615385zM2397.538462-83.692308H4.923077c9.846154-24.615385 34.461538-44.307692 59.076923-44.307692h2274.461538c29.538462 0 54.153846 19.692308 59.076924 44.307692zM992 669.883077l-19.692308-59.076923h-113.230769c4.923077-14.769231 9.846154-24.615385 14.769231-39.384616l-68.923077-24.615384h108.307692l-14.769231-59.076923h-246.153846l-14.76923-19.692308h231.384615l-19.692308-59.076923h-246.153846c-4.923077-9.846154-9.846154-14.769231-14.769231-19.692308h320l-14.76923-59.076923h-108.307693l-4.923077-24.615384h108.307693l-14.769231-59.076923h-108.307692l-24.615385-68.923077c-4.923077-24.615385-19.692308-44.307692-39.384615-59.076923-4.923077 0-9.846154-4.923077-9.846154-4.923077-34.461538-9.846154-68.923077-14.769231-108.307693-9.846154 0 19.692308 0 44.307692-4.923077 64l-54.153846-39.384616c-19.692308 29.538462-44.307692 59.076923-68.923077 78.769231l49.23077 34.461539h-29.538462c-49.230769-49.230769-108.307692-88.615385-172.307692-123.076923-9.846154 19.692308-19.692308 34.461538-34.461539 49.230769-4.923077 9.846154-9.846154 14.769231-9.846154 14.769231 39.384615 14.769231 78.769231 39.384615 113.23077 64h-73.846154l14.769231 59.076923h128c9.846154 9.846154 14.769231 14.769231 19.692307 24.615384h-152.615384l14.76923 59.076923h182.153847c0 4.923077 4.923077 4.923077 9.846153 14.769231 4.923077 4.923077 4.923077 9.846154 4.923077 9.846154h-118.153846l14.769231 54.153846h142.769231s4.923077 4.923077 4.923077 9.846154c4.923077 4.923077 4.923077 9.846154 9.846154 14.769231h-172.307693l14.769231 49.230769c-14.769231 14.769231-29.538462 29.538462-49.230769 39.384615 49.230769 34.461538 93.538462 78.769231 128 123.076923 0 4.923077 4.923077 9.846154 9.846154 14.769231l68.923077-19.692308c-9.846154-9.846154-19.692308-19.692308-24.615385-29.538461h142.769231l-9.846154-39.384615c24.615385 24.615385 49.230769 54.153846 68.923077 88.615384l68.923077-14.769231c-4.923077-9.846154-9.846154-24.615385-19.692308-34.461538h192z m-561.230769-123.076923h172.307692c4.923077 9.846154 9.846154 19.692308 14.769231 39.384615l39.384615-4.923077c-9.846154 4.923077-19.692308 9.846154-24.615384 9.846154 4.923077 0 4.923077 4.923077 9.846153 4.923077 0 4.923077 4.923077 9.846154 9.846154 9.846154h-73.846154c4.923077-9.846154 4.923077-19.692308 9.846154-34.461539l-73.846154-24.615384c0 19.692308-4.923077 39.384615-14.76923 59.076923h-4.923077c-24.615385-19.692308-44.307692-44.307692-64-59.076923z m275.692307-216.615385h-157.538461c-9.846154-9.846154-14.769231-14.769231-19.692308-24.615384h172.307693l4.923076 24.615384z m-39.384615-147.692307l19.692308 64h-157.538462c24.615385-19.692308 44.307692-39.384615 64-64l-9.846154-9.846154h68.923077c4.923077 0 9.846154 0 14.769231 9.846154z m9.846154 364.307692h123.076923c-4.923077 19.692308-9.846154 39.384615-19.692308 59.076923h-34.461538c-19.692308-14.769231-34.461538-34.461538-54.153846-49.230769l-4.923077 4.923077-9.846154-14.769231zM1508.923077 664.96l44.307692-29.538462c-49.230769-54.153846-108.307692-98.461538-172.307692-132.923076 68.923077-19.692308 142.769231-34.461538 216.615385-39.384616-24.615385-19.692308-44.307692-44.307692-64-68.923077l-4.923077-4.923077c-88.615385 9.846154-172.307692 34.461538-251.076923 68.923077-73.846154-29.538462-152.615385-49.230769-231.384616-64h433.230769l-83.692307-285.538461h-83.692308l4.923077 19.692307h-280.615385l-4.923077-19.692307h-78.76923l78.76923 285.538461c-19.692308-4.923077-34.461538-4.923077-54.153846-9.846154 0 24.615385-4.923077 49.230769-14.769231 68.923077 78.769231 9.846154 157.538462 24.615385 236.307693 44.307693-19.692308 14.769231-39.384615 34.461538-54.153846 49.230769-19.692308-9.846154-49.230769-24.615385-83.692308-39.384616-4.923077 19.692308-14.769231 39.384615-29.538462 54.153847l-4.923077 4.923077c83.692308 29.538462 162.461538 78.769231 226.461539 142.76923 4.923077 4.923077 9.846154 9.846154 9.846154 14.769231l78.769231-14.769231-39.384616-39.384615h187.076923l19.692308-4.923077z m-448-477.538462h103.384615l9.846154 44.307693h-103.384615l-9.846154-44.307693z m142.769231 137.846154h-103.384616l-9.846154-34.461538h103.384616l9.846154 34.461538z m19.692307 270.769231c19.692308-24.615385 49.230769-49.230769 78.769231-59.076923 39.384615 14.769231 73.846154 34.461538 113.230769 59.076923h-192z m19.692308-408.615385h98.461539l9.846153 44.307693h-98.461538l-9.846154-44.307693z m128 103.384616l9.846154 34.461538h-98.461539l-9.846153-34.461538h98.461538zM2006.153846 600.96h231.384616l-98.461539-324.923077h-83.692308l9.846154 34.461539h-147.692307l-59.076924-201.846154h-83.692307l59.076923 201.846154h-147.692308l-9.846154-34.461539h-78.76923l93.538461 329.846154h226.461539l29.538461 113.230769h83.692308l-24.615385-118.153846z m-290.461538-216.615385h147.692307l39.384616 137.846154h-147.692308l-39.384615-137.846154z m226.461538 0h147.692308l39.384615 137.846154h-147.692307l-39.384616-137.846154z"  horiz-adv-x="2560" />
      
      <glyph glyph-name="xmdt-jjz" unicode="&#58966;" d="M2525.538462 886.153846c-9.846154 4.923077-19.692308 9.846154-29.538462 9.846154H221.538462c-9.846154 0-19.692308-4.923077-29.538462-9.846154h2333.538462zM2525.538462 886.153846H192c-19.692308-9.846154-29.538462-24.615385-34.461538-44.307692l-34.461539-196.923077h2407.384615l29.538462 177.230769v9.846154c0 24.615385-14.769231 44.307692-34.461538 54.153846zM2486.153846 403.692308l44.307692 241.230769H123.076923L78.769231 403.692308zM39.384615 162.461538h2402.461539l44.307692 241.23077H78.769231zM2397.538462-83.692308c0 4.923077 0 4.923077 4.923076 9.846154l39.384616 236.307692H39.384615L0-54.153846v-9.846154c0-4.923077 0-9.846154 4.923077-19.692308h2392.615385zM2397.538462-83.692308H4.923077c9.846154-24.615385 34.461538-44.307692 59.076923-44.307692h2274.461538c29.538462 0 54.153846 19.692308 59.076924 44.307692zM704.196923 161.230769h64c9.846154 0 19.692308 4.923077 24.615385 14.769231 9.846154 19.692308 19.692308 39.384615 24.615384 59.076923 19.692308-14.769231 39.384615-24.615385 59.076923-29.538461-9.846154-39.384615-29.538462-68.923077-59.076923-98.461539-19.692308-9.846154-39.384615-14.769231-59.076923-14.769231h-83.692307c-44.307692 0-64 9.846154-73.846154 24.615385-4.923077 19.692308-4.923077 39.384615 4.923077 59.076923l19.692307 73.846154h-64c-19.692308-39.384615-54.153846-78.769231-98.461538-103.384616-54.153846-29.538462-118.153846-49.230769-177.230769-59.076923 0 19.692308-9.846154 44.307692-19.692308 59.076923v4.923077c64 4.923077 123.076923 24.615385 177.230769 54.153847 14.769231 14.769231 29.538462 29.538462 44.307692 49.230769h-98.461538l49.230769 177.230769h418.461539l-49.23077-177.230769h-108.307692l-19.692308-73.846154c-4.923077-9.846154 0-19.692308 4.923077-19.692308h19.692308z m256 359.384616l-19.692308-59.076923h-576l19.692308 59.076923h137.846154c0 14.769231 0 29.538462-4.923077 39.384615l73.846154 19.692308h-162.461539l19.692308 64h216.615385c0 9.846154 0 19.692308-4.923077 29.538461l83.692307 14.769231c4.923077-14.769231 4.923077-29.538462 4.923077-44.307692h211.692308l-19.692308-64h-162.461538l68.923077-14.769231-29.538462-44.307692h142.769231z m-462.769231-147.692308l-19.692307-54.153846h265.846153l14.769231 54.153846h-260.923077z m280.615385 206.769231h-187.076923c4.923077-19.692308 9.846154-39.384615 9.846154-59.076923h142.76923c14.769231 24.615385 24.615385 44.307692 34.461539 59.076923zM1201.427692 683.076923l64-24.615385c-29.538462-44.307692-64-88.615385-98.461538-132.923076l-123.076923-443.076924h-73.846154l93.538461 329.846154c-24.615385-19.692308-39.384615-39.384615-59.076923-49.230769 0 24.615385-9.846154 49.230769-14.76923 73.846154v4.923077c68.923077 54.153846 132.923077 123.076923 182.153846 192 9.846154 19.692308 19.692308 34.461538 29.538461 49.230769z m39.384616-329.846154l24.615384 88.615385h73.846154l-24.615384-93.538462c-29.538462-113.230769-98.461538-206.769231-192-270.76923-9.846154 19.692308-19.692308 34.461538-39.384616 49.230769v4.923077c78.769231 49.230769 132.923077 128 157.538462 221.538461z m162.461538 320h73.846154c19.692308-64 49.230769-123.076923 98.461538-172.307692 14.769231-14.769231 29.538462-29.538462 44.307693-39.384615-24.615385-19.692308-44.307692-44.307692-64-68.923077-14.769231 14.769231-34.461538 29.538462-49.230769 49.230769l-98.461539-349.538462h-78.769231l98.461539 354.461539h73.846154c-34.461538 44.307692-64 98.461538-83.692308 152.615384-54.153846-64-113.230769-118.153846-182.153846-162.461538-14.769231-19.692308-34.461538-34.461538-59.076923-44.307692-4.923077 24.615385-14.769231 44.307692-24.615385 64 68.923077 39.384615 132.923077 88.615385 187.076923 142.76923 24.615385 24.615385 44.307692 49.230769 64 73.846154zM2028.504615 574.769231h226.461539l-88.615385-320h-78.769231l9.846154 29.538461h-147.692307l-59.076923-201.846154h-78.769231l59.076923 201.846154h-142.769231l-9.846154-34.461538h-78.769231l93.538462 324.923077h221.538462l29.538461 113.230769h78.769231l-34.461539-113.230769z m-285.538461-216.615385h142.769231l39.384615 137.846154h-142.769231l-39.384615-137.846154z m221.538461 0h147.692308l39.384615 137.846154h-147.692307l-39.384616-137.846154z"  horiz-adv-x="2560" />
      
      </font>
</defs>
</svg>
